<svg xmlns="http://www.w3.org/2000/svg" viewBox="0 0 220 100" class="design-iconfont">
  <defs>
    <linearGradient x1="47.8451289%" y1="47.9873403%" x2="51.5705863%" y2="51.5651669%" id="dpcliwm31a">
      <stop stop-color="#FBFCFD" offset="0%"/>
      <stop stop-color="#F0F2F5" offset="100%"/>
    </linearGradient>
    <linearGradient x1="49.9972159%" y1="1.17059325%" x2="49.9972159%" y2="94.8038437%" id="hki5trap1b">
      <stop stop-color="#E6E8EB" stop-opacity=".9917" offset="0%"/>
      <stop stop-color="#D4D6D9" offset="100%"/>
    </linearGradient>
    <linearGradient x1="49.9972159%" y1=".00113636%" x2="49.9972159%" y2="99.2111364%" id="8rwfe0co5c">
      <stop stop-color="#EDEFF2" offset="0%"/>
      <stop stop-color="#E8EAED" offset="100%"/>
    </linearGradient>
    <linearGradient x1="49.9972159%" y1="1.17059325%" x2="49.9972159%" y2="94.8038437%" id="6k4emq824d">
      <stop stop-color="#E6E8EB" stop-opacity=".9917" offset="0%"/>
      <stop stop-color="#CCCED1" offset="100%"/>
    </linearGradient>
    <linearGradient x1="49.9972159%" y1="1.4020377%" x2="49.9972159%" y2="97.2233564%" id="wze0fp5x1e">
      <stop stop-color="#E1E3E6" offset="0%"/>
      <stop stop-color="#F5F7FA" offset="100%"/>
    </linearGradient>
  </defs>
  <g fill-rule="nonzero" fill="none">
    <path d="M74.678508,71.9333268 C85.073023,69.6248051 99.9952101,68.6265255 110.134645,69.1256653 C120.27408,69.6248051 128.691724,71.3717945 129.265654,70.9350471 C131.306295,69.6248051 135.642657,69.0632729 135.387577,69.5624127 C135.196267,70.0615525 132.390385,71.6837568 133.283166,71.9333268 C134.175946,72.1828967 143.231291,73.1811763 146.993722,73.9922785 C150.756154,74.7409882 153.179415,75.4896979 154.008426,75.4896979 C154.837436,75.4896979 156.112837,74.4290258 161.533289,74.9281656 C161.660829,75.115343 160.321659,75.1777355 159.110028,75.8016602 C157.898398,76.425585 157.005617,76.3631925 157.005617,76.4879775 C157.005617,76.6127624 157.707087,76.3008001 159.110028,77.1742947 C160.512969,78.0477894 163,78.3597518 163,78.5469292 C163,78.7341066 159.875269,79.7947787 154.582356,78.1725743 C153.243185,77.735827 150.118454,81.3545906 135.770197,82.3528702 C121.42194,83.3511498 97.1893287,84.162252 97.1893287,84.162252 C97.1893287,84.162252 98.6560394,85.9716338 100.76045,86.5331661 C100.88799,86.7203435 99.93144,87.4066607 95.786388,86.657951 C91.6413361,85.9092413 89.473155,84.2246445 89.473155,84.2246445 C89.473155,84.2246445 81.3105912,83.7255047 78.2496297,83.2263649 C75.1886683,82.7272251 71.6175466,81.4169831 69.1942854,81.1674132 C66.7710243,80.9178433 55.738809,79.6699937 59.947631,76.8623323 C59.820091,76.7999399 64.2839931,74.2418484 74.678508,71.9333268 Z" fill="url(#dpcliwm31a)"/>
    <path fill="url(#hki5trap1b)" d="M74 54.1332149L89.1325758 31 126.867424 31 142 54.1332149 142 68 74 68z"/>
    <path d="M90.3560606,77 L75.2878788,77 C74.5795455,77 74,76.4119318 74,75.6931818 L74,54 L89.0681818,54 C89.7765152,54 90.3560606,54.5880682 90.3560606,55.3068182 L90.3560606,60.1420455 C90.3560606,60.8607955 90.8712121,61.3835227 91.5795455,61.4488636 L91.6439394,61.4488636 L124.356061,61.4488636 C125.064394,61.4488636 125.579545,60.9261364 125.643939,60.2073864 L125.643939,60.1420455 L125.643939,55.3068182 C125.643939,54.5880682 126.223485,54 126.931818,54 L142,54 L142,75.6931818 C142,76.4119318 141.420455,77 140.712121,77 L125.643939,77 L90.3560606,77 Z" fill="url(#8rwfe0co5c)"/>
    <path fill="#C4C6CC" d="M71.1666667 74L71.1666667 79.8333333 77 79.8333333 77 81 70 81 70 74z"/>
    <path fill="#C4C6CC" d="M139 79.8333333L144.833333 79.8333333 144.833333 74 146 74 146 81 139 81z"/>
    <g fill="#C4C6CC">
      <path transform="rotate(111 55.17735815 54.32039486)" d="M-0.516915546 0.516997738L1.54370898 0.516997778 1.543709 1.54363943 -0.516915526 1.54363939z"/>
      <path transform="rotate(111 54.53291054 57.79719816)" d="M-0.516984518 4.6381994L1.54364001 4.63819944 1.54364003 5.66484109 -0.516984498 5.66484105z"/>
      <path transform="rotate(111 53.88856681 61.27407657)" d="M-0.516917884 8.75947338L1.54370664 8.75947342 1.54370666 9.78611507 -0.516917864 9.78611503z"/>
      <path transform="rotate(111 53.2441664 64.75094533)" d="M-0.516919213 12.8807436L1.54370531 12.8807436 1.54370533 13.9073852 -0.516919193 13.9073852z"/>
    </g>
    <g fill="#C4C6CC">
      <path transform="rotate(148 34.68151375 27.85827354)" d="M0.00000563064771 0.00000280535484L1.02664728 0.00000278543689 1.02664724 2.06062731 0.00000559081172 2.06062733z"/>
      <path transform="rotate(148 35.86337451 31.97949292)" d="M0.000121587208 4.12125121L1.02676324 4.12125119 1.0267632 6.18187572 0.000121547372 6.18187574z"/>
      <path transform="rotate(148 37.0451192 36.10081701)" d="M0.0000940164192 8.24256465L1.02673567 8.24256463 1.02673563 10.3031892 0.0000939765832 10.3031892z"/>
      <path transform="rotate(148 38.2268259 40.22201239)" d="M0.0000664457226 12.3637493L1.0267081 12.3637493 1.02670806 14.4243738 0.0000664058866 14.4243738z"/>
      <path transform="rotate(148 39.40855096 44.34327176)" d="M0.0000388748578 16.4849984L1.02668053 16.4849983 1.02668049 18.5456229 0.0000388350218 18.5456229z"/>
    </g>
    <path fill="#C4C6CC" d="M132 33A1 1 0 1 0 132 35A1 1 0 1 0 132 33Z"/>
    <path fill="#C4C6CC" d="M100 42A1 1 0 1 0 100 44A1 1 0 1 0 100 42Z"/>
    <path d="M113.56686,16 C114.671429,16 115.56686,16.8954305 115.56686,18 L115.565886,42.394 L120.886112,42.3945511 C121.438397,42.3945511 121.886112,42.8422664 121.886112,43.3945511 C121.886112,43.6782138 121.765642,43.9485298 121.554701,44.1381835 L108.668592,55.7238905 C108.288402,56.065714 107.711605,56.065714 107.331415,55.7238905 L94.445306,44.1381835 C94.0346092,43.7689321 94.001011,43.1366592 94.3702624,42.7259624 C94.559916,42.5150216 94.830232,42.3945511 95.1138947,42.3945511 L101.152886,42.394 L101.1538,18 C101.1538,16.8954305 102.049231,16 103.1538,16 L113.56686,16 Z" fill="url(#6k4emq824d)"/>
    <path d="M113.56686,11 C114.671429,11 115.56686,11.8954305 115.56686,13 L115.565886,37.394 L120.886112,37.3945511 C121.438397,37.3945511 121.886112,37.8422664 121.886112,38.3945511 C121.886112,38.6782138 121.765642,38.9485298 121.554701,39.1381835 L108.668592,50.7238905 C108.288402,51.065714 107.711605,51.065714 107.331415,50.7238905 L94.445306,39.1381835 C94.0346092,38.7689321 94.001011,38.1366592 94.3702624,37.7259624 C94.559916,37.5150216 94.830232,37.3945511 95.1138947,37.3945511 L101.152886,37.394 L101.1538,13 C101.1538,11.8954305 102.049231,11 103.1538,11 L113.56686,11 Z" fill="url(#wze0fp5x1e)"/>
  </g>
</svg>
