<?xml version="1.0" encoding="UTF-8"?>
<svg width="64px" height="64px" viewBox="0 0 64 64" version="1.1" xmlns="http://www.w3.org/2000/svg" xmlns:xlink="http://www.w3.org/1999/xlink">
    <title>envi./I0</title>
    <g id="envi./I0" stroke="none" stroke-width="1" fill="none" fill-rule="evenodd">
        <polygon id="多边形" fill="#3A84FF" points="32 5 51.0918831 12.9081169 59 32 51.0918831 51.0918831 32 59 12.9081169 51.0918831 5 32 12.9081169 12.9081169"></polygon>
        <path d="M20.7578125,40 L20.7578125,21.8476562 L16.890625,21.8476562 L16.890625,40 L20.7578125,40 Z M26.9934779,40 L34.4804688,21.8476562 L31.0585938,21.8476562 L23.1842832,40 L26.9934779,40 Z M41.5117188,40.3164062 C43.6523438,40.3164062 45.2890625,39.4902344 46.421875,37.8378906 C47.5546875,36.1855469 48.1210938,33.8398438 48.1210938,30.8007812 C48.1210938,24.6289062 46.0351562,21.5429688 41.8632812,21.5429688 C39.6757812,21.5429688 38.0039062,22.3710938 36.8476562,24.0273438 C35.6914062,25.6835938 35.1132812,28.0820312 35.1132812,31.2226562 C35.1132812,37.2851562 37.2460938,40.3164062 41.5117188,40.3164062 Z M41.6289062,37.4101562 C39.8398438,37.4101562 38.9453125,35.3164062 38.9453125,31.1289062 C38.9453125,26.6757812 39.8632812,24.4492188 41.6992188,24.4492188 C43.4101562,24.4492188 44.265625,26.6132812 44.265625,30.9414062 C44.265625,35.2539062 43.3867188,37.4101562 41.6289062,37.4101562 Z" id="I/0" fill="#FFFFFF" fill-rule="nonzero"></path>
    </g>
</svg>