<svg width="24" height="24" viewBox="0 0 24 24" fill="none" xmlns="http://www.w3.org/2000/svg">
<path d="M21.75 5.20313V19.8C21.75 20.0561 21.6996 20.3097 21.6016 20.5463C21.5036 20.7829 21.36 20.9978 21.1789 21.1789C20.9978 21.36 20.7829 21.5036 20.5463 21.6016C20.3097 21.6996 20.0561 21.75 19.8 21.75H5.20313C4.41991 21.75 3.66877 21.4389 3.11495 20.885C2.56113 20.3312 2.25 19.5801 2.25 18.7969V5.20313C2.24978 4.81525 2.32602 4.43115 2.47435 4.07276C2.62269 3.71437 2.8402 3.38874 3.11447 3.11447C3.38874 2.8402 3.71437 2.62269 4.07276 2.47435C4.43115 2.32602 4.81525 2.24978 5.20313 2.25H18.7969C19.5801 2.25 20.3312 2.56113 20.885 3.11495C21.4389 3.66877 21.75 4.41991 21.75 5.20313Z" fill="#699DF4"/>
<path opacity="0.2" d="M17.1352 21.75H5.20312C4.41991 21.75 3.66877 21.4389 3.11495 20.885C2.56113 20.3312 2.25 19.5801 2.25 18.7969V8.67188C2.44406 8.66406 2.63938 8.66016 2.83594 8.66016C3.07125 8.66016 3.30508 8.66578 3.53742 8.67703C10.437 9.00984 16.0598 14.2141 17.0391 20.9257C17.0789 21.198 17.1109 21.4728 17.1352 21.75Z" fill="white"/>
<path opacity="0.14" d="M21.7501 5.20313V19.8C21.7504 20.0638 21.6971 20.3249 21.5933 20.5673C20.4673 20.8337 19.3141 20.9679 18.1571 20.9672C17.7812 20.9672 17.4086 20.9534 17.0394 20.9257C10.219 20.4178 4.68287 15.3007 3.53631 8.67774C3.19023 6.67401 3.25594 4.62078 3.72943 2.64328C4.17755 2.38486 4.68589 2.24921 5.20318 2.25H18.7969C19.5802 2.25 20.3313 2.56114 20.8851 3.11495C21.4389 3.66877 21.7501 4.41991 21.7501 5.20313Z" fill="white"/>
<path d="M14.7632 14.7623C14.0444 14.0916 13.0978 13.7188 12.1147 13.7191V16.9566C13.0979 16.9563 14.0444 17.3292 14.7632 18C15.4819 17.3292 16.4285 16.9563 17.4116 16.9566V13.7191C16.4285 13.7188 15.4819 14.0916 14.7632 14.7623ZM14.7632 13.7191C14.9379 13.7192 15.1086 13.6674 15.2539 13.5704C15.3991 13.4734 15.5124 13.3355 15.5793 13.1741C15.6461 13.0128 15.6637 12.8352 15.6296 12.6639C15.5956 12.4925 15.5115 12.3352 15.388 12.2116C15.2645 12.0881 15.1071 12.004 14.9358 11.9699C14.7645 11.9358 14.5869 11.9532 14.4255 12.0201C14.2641 12.0869 14.1262 12.2001 14.0291 12.3453C13.9321 12.4906 13.8803 12.6613 13.8803 12.836C13.8804 13.0701 13.9735 13.2947 14.139 13.4602C14.3045 13.6258 14.529 13.7189 14.7632 13.7191Z" fill="white"/>
<path d="M15.8203 7.28485C15.8194 6.9619 15.6907 6.65245 15.4623 6.42409C15.234 6.19573 14.9245 6.06703 14.6016 6.0661H7.47656C7.15362 6.06703 6.84416 6.19573 6.6158 6.42409C6.38744 6.65245 6.25874 6.9619 6.25781 7.28485V15.7927C6.25874 16.1156 6.38744 16.4251 6.6158 16.6534C6.84416 16.8818 7.15362 17.0105 7.47656 17.0114H10.1611C10.1423 16.9376 10.7688 16.9596 11.5758 16.9936V13.0078L12.3851 13.1306C12.4915 13.1466 12.5972 13.1677 12.7015 13.1932L13.4721 13.3828C13.3402 13.074 13.3211 12.7286 13.4183 12.4072C13.5156 12.0858 13.7228 11.8088 14.0038 11.6249C14.2847 11.441 14.6215 11.3618 14.9549 11.4013C15.2884 11.4408 15.5973 11.5964 15.8276 11.8409L15.8203 7.28485ZM11.4609 13.6985C11.4606 13.8125 11.4151 13.9217 11.3345 14.0023C11.2539 14.0829 11.1446 14.1283 11.0306 14.1286H8.2282C8.11423 14.1282 8.00503 14.0828 7.92442 14.0022C7.84381 13.9217 7.79832 13.8125 7.79789 13.6985V13.6214C7.79826 13.5074 7.84372 13.3982 7.92434 13.3175C8.00495 13.2369 8.11419 13.1915 8.2282 13.1911H11.0311C11.145 13.1915 11.2542 13.237 11.3347 13.3176C11.4153 13.3983 11.4606 13.5075 11.4609 13.6214V13.6985ZM12.75 11.2376C12.7496 11.3516 12.7042 11.4608 12.6235 11.5414C12.5429 11.622 12.4337 11.6674 12.3197 11.6677H8.20477C8.09079 11.6673 7.98159 11.6219 7.90098 11.5413C7.82037 11.4607 7.77489 11.3516 7.77445 11.2376V11.1605C7.77482 11.0465 7.82028 10.9372 7.9009 10.8566C7.98152 10.776 8.09075 10.7305 8.20477 10.7302H12.3202C12.4341 10.7306 12.5433 10.7761 12.6238 10.8567C12.7043 10.9373 12.7497 11.0465 12.75 11.1605V11.2376ZM13.5938 8.80829C13.5934 8.93249 13.5439 9.05151 13.456 9.13933C13.3682 9.22716 13.2492 9.27667 13.125 9.27704H8.15625C8.03204 9.27667 7.91303 9.22716 7.8252 9.13933C7.73738 9.05151 7.68787 8.93249 7.6875 8.80829C7.68787 8.68408 7.73738 8.56507 7.8252 8.47724C7.91303 8.38941 8.03204 8.33991 8.15625 8.33954H13.125C13.2492 8.33991 13.3682 8.38941 13.456 8.47724C13.5439 8.56507 13.5934 8.68408 13.5938 8.80829Z" fill="white"/>
</svg>
