<svg width="24" height="24" viewBox="0 0 24 24" fill="none" xmlns="http://www.w3.org/2000/svg">
<path fill-rule="evenodd" clip-rule="evenodd" d="M10.371 5.83465C14.8929 5.83465 18.5586 9.50038 18.5586 14.0223L18.5602 20.118C20.4872 20.3111 21.8337 20.8579 21.8337 22.194C21.824 22.2038 21.8046 22.2062 21.7463 22.2077L21.7065 22.2086C21.6991 22.2087 21.6912 22.2088 21.6828 22.2089L20.9857 22.2091C20.9592 22.209 20.9319 22.2089 20.9037 22.2088L20.6264 22.2079C20.5928 22.2078 20.5584 22.2077 20.5229 22.2076L20.2987 22.2069C20.2593 22.2067 20.219 22.2066 20.1776 22.2065L19.9165 22.2056C19.7796 22.2052 19.6328 22.2048 19.4756 22.2043L19.1471 22.2034C18.964 22.2029 18.7684 22.2023 18.5594 22.2018L10.371 22.2099C6.78211 22.2099 3.73253 19.9008 2.62687 16.6873C1.1284 16.3881 0 15.0714 0 13.4924L1.3277 13.4919C1.63658 13.4916 1.92719 13.4913 2.20061 13.4909C2.47401 9.21677 6.02754 5.83465 10.371 5.83465Z" fill="url(#paint0_linear_64_4872)"/>
<path fill-rule="evenodd" clip-rule="evenodd" d="M10.6081 5.83466C10.9014 4.37908 11.4794 3.65129 12.342 3.65129C13.636 3.65129 13.622 5.38091 12.342 5.22792C11.6669 5.14722 11.2091 5.34947 10.9687 5.83466H10.6081Z" fill="url(#paint1_linear_64_4872)"/>
<path fill-rule="evenodd" clip-rule="evenodd" d="M10.6081 5.83466C10.3147 4.37908 9.73675 3.65129 8.87413 3.65129C7.58019 3.65129 7.59418 5.38091 8.87413 5.22792C9.54932 5.14722 10.0071 5.34947 10.2475 5.83466H10.6081Z" fill="url(#paint2_linear_64_4872)"/>
<path d="M21.8337 10.2014C21.8337 9.59847 21.3449 9.1097 20.742 9.1097C20.1391 9.1097 19.6503 9.59847 19.6503 10.2014V17.8432C19.6503 18.4461 20.1391 18.9349 20.742 18.9349C21.3449 18.9349 21.8337 18.4461 21.8337 17.8432V10.2014Z" fill="url(#paint3_linear_64_4872)"/>
<path d="M20.7249 1.74931C20.7249 3.41893 21.9743 4.79675 23.5892 4.99884L24 5.02436C22.3304 5.02436 20.9526 6.27374 20.7505 7.8886L20.7249 8.29941C20.7249 6.62979 19.4756 5.25197 17.8607 5.04988L17.4499 5.02436C19.1195 5.02436 20.4973 3.77498 20.6994 2.16012L20.7249 1.74931Z" fill="url(#paint4_linear_64_4872)"/>
<path d="M16.3582 0.657623C16.3582 1.77071 17.1911 2.68925 18.2677 2.82398L18.5416 2.84099C17.4285 2.84099 16.51 3.67391 16.3752 4.75048L16.3582 5.02436C16.3582 3.91128 15.5253 2.99273 14.4487 2.858L14.1748 2.84099C15.2879 2.84099 16.2065 2.00807 16.3412 0.9315L16.3582 0.657623Z" fill="url(#paint5_linear_64_4872)"/>
<path d="M17.4499 6.11604C17.4499 6.67259 17.8664 7.13186 18.4046 7.19922L18.5416 7.20773C17.985 7.20773 17.5258 7.62419 17.4584 8.16247L17.4499 8.29941C17.4499 7.74287 17.0334 7.2836 16.4952 7.21623L16.3582 7.20773C16.9148 7.20773 17.374 6.79127 17.4414 6.25298L17.4499 6.11604Z" fill="url(#paint6_linear_64_4872)"/>
<path fill-rule="evenodd" clip-rule="evenodd" d="M10.371 8.01804C13.687 8.01804 16.3752 10.7062 16.3752 14.0223V17.8432C16.3752 19.049 15.3977 20.0266 14.1919 20.0266H10.371C7.0549 20.0266 4.3667 17.3384 4.3667 14.0223C4.3667 10.7062 7.0549 8.01804 10.371 8.01804Z" fill="url(#paint7_linear_64_4872)" fill-opacity="0.65"/>
<path d="M9.27932 13.4765C9.27932 12.8736 8.79055 12.3848 8.18763 12.3848C7.58471 12.3848 7.09595 12.8736 7.09595 13.4765V14.5682C7.09595 15.1711 7.58471 15.6598 8.18763 15.6598C8.79055 15.6598 9.27932 15.1711 9.27932 14.5682V13.4765Z" fill="#16204D"/>
<path d="M13.646 13.4765C13.646 12.8736 13.1573 12.3848 12.5543 12.3848C11.9514 12.3848 11.4626 12.8736 11.4626 13.4765V14.5682C11.4626 15.1711 11.9514 15.6598 12.5543 15.6598C13.1573 15.6598 13.646 15.1711 13.646 14.5682V13.4765Z" fill="#16204D"/>
<defs>
<linearGradient id="paint0_linear_64_4872" x1="4" y1="3.87822" x2="20.8889" y2="22.9893" gradientUnits="userSpaceOnUse">
<stop stop-color="#235DFA"/>
<stop offset="0.538462" stop-color="#8778E5"/>
<stop offset="1" stop-color="#EB8CEC"/>
</linearGradient>
<linearGradient id="paint1_linear_64_4872" x1="4" y1="3.87822" x2="20.8889" y2="22.9893" gradientUnits="userSpaceOnUse">
<stop stop-color="#235DFA"/>
<stop offset="0.538462" stop-color="#8778E5"/>
<stop offset="1" stop-color="#EB8CEC"/>
</linearGradient>
<linearGradient id="paint2_linear_64_4872" x1="4" y1="3.87822" x2="20.8889" y2="22.9893" gradientUnits="userSpaceOnUse">
<stop stop-color="#235DFA"/>
<stop offset="0.538462" stop-color="#8778E5"/>
<stop offset="1" stop-color="#EB8CEC"/>
</linearGradient>
<linearGradient id="paint3_linear_64_4872" x1="4" y1="3.87822" x2="20.8889" y2="22.9893" gradientUnits="userSpaceOnUse">
<stop stop-color="#235DFA"/>
<stop offset="0.538462" stop-color="#8778E5"/>
<stop offset="1" stop-color="#EB8CEC"/>
</linearGradient>
<linearGradient id="paint4_linear_64_4872" x1="4" y1="3.87822" x2="20.8889" y2="22.9893" gradientUnits="userSpaceOnUse">
<stop stop-color="#235DFA"/>
<stop offset="0.538462" stop-color="#8778E5"/>
<stop offset="1" stop-color="#EB8CEC"/>
</linearGradient>
<linearGradient id="paint5_linear_64_4872" x1="4" y1="3.87822" x2="20.8889" y2="22.9893" gradientUnits="userSpaceOnUse">
<stop stop-color="#235DFA"/>
<stop offset="0.538462" stop-color="#8778E5"/>
<stop offset="1" stop-color="#EB8CEC"/>
</linearGradient>
<linearGradient id="paint6_linear_64_4872" x1="4" y1="3.87822" x2="20.8889" y2="22.9893" gradientUnits="userSpaceOnUse">
<stop stop-color="#235DFA"/>
<stop offset="0.538462" stop-color="#8778E5"/>
<stop offset="1" stop-color="#EB8CEC"/>
</linearGradient>
<linearGradient id="paint7_linear_64_4872" x1="604.793" y1="8.01804" x2="604.793" y2="1208.87" gradientUnits="userSpaceOnUse">
<stop stop-color="white" stop-opacity="0.885701"/>
<stop offset="1" stop-color="white" stop-opacity="0.29"/>
</linearGradient>
</defs>
</svg>
