<svg width="16" height="16" viewBox="0 0 16 16" fill="none" xmlns="http://www.w3.org/2000/svg">
<rect y="1" width="16" height="14" rx="2" fill="#EAEBF0"/>
<path d="M0.996094 12V6.16406C0.996094 5.70833 1.15885 5.31771 1.48438 4.99219C1.8125 4.66406 2.20443 4.5 2.66016 4.5H4.33203C4.78776 4.5 5.17839 4.66406 5.50391 4.99219C5.83203 5.32031 5.99609 5.71094 5.99609 6.16406V12H4.33203V8.66406H2.66016V12H0.996094ZM2.66016 7.83594H4.33203V6.16406C4.33203 5.9375 4.2487 5.74349 4.08203 5.58203C3.91797 5.41797 3.72266 5.33594 3.49609 5.33594C3.26693 5.33594 3.07031 5.41797 2.90625 5.58203C2.74219 5.74349 2.66016 5.9375 2.66016 6.16406V7.83594ZM6.65625 12V4.5H8.32031V11.1641H10.8203V12H6.65625ZM11.4961 12V4.5H13.1602V11.1641H15.6602V12H11.4961Z" fill="#979BA5"/>
</svg>
