<svg width="51" height="60" viewBox="0 0 51 60" fill="none" xmlns="http://www.w3.org/2000/svg">
<path fill-rule="evenodd" clip-rule="evenodd" d="M34.2474 55.6397C35.0693 55.6397 35.7346 56.3051 35.7346 57.1269C35.7346 62.0464 31.7088 66.0722 26.7894 66.0722H23.815C18.8943 66.0722 14.8697 62.0464 14.8697 57.1269C14.8697 56.3051 15.5351 55.6397 16.3569 55.6397H34.2474ZM25.3019 6.95496C36.8251 6.95496 46.1668 16.2966 46.1668 27.8199C46.1668 35.5387 41.9649 42.2607 35.7344 45.8703V51.0031C35.7344 52.2828 34.6958 53.3214 33.4161 53.3214H17.1878C15.9081 53.3214 14.8695 52.2828 14.8695 51.0031V45.8703C8.63899 42.2607 4.43704 35.5387 4.43704 27.8199C4.43704 16.2966 13.7787 6.95496 25.3019 6.95496ZM18.5798 22.2573C17.9006 22.9354 17.9006 24.0377 18.5798 24.7159L23.5631 29.6991V39.4117C23.5631 40.3715 24.342 41.1504 25.3018 41.1504C26.2616 41.1504 27.0406 40.3715 27.0406 39.4117V29.6991L32.0238 24.7159C32.7031 24.0377 32.7031 22.9354 32.0238 22.2573C31.3445 21.578 30.2445 21.578 29.5652 22.2573L25.3018 26.5207L21.0384 22.2573C20.3592 21.578 19.2591 21.578 18.5798 22.2573ZM3.27811 8.31234L6.55621 11.5916L3.27811 14.8709L0 11.5916L3.27811 8.31234ZM47.3262 8.31234L50.6043 11.5916L47.3262 14.8709L44.0481 11.5916L47.3262 8.31234ZM27.6198 0V4.63664H22.9831V0H27.6198Z" fill="#E8F1FC"/>
</svg>
