<svg width="59" height="56" viewBox="0 0 59 56" fill="none" xmlns="http://www.w3.org/2000/svg">
<path d="M0 1.17V57.33C0 57.9568 0.501428 58.5 1.17 58.5H26.8264C27.4532 58.5 27.9964 57.9986 27.9964 57.33V53.82C27.9964 53.1932 27.495 52.65 26.8264 52.65H7.02C6.39321 52.65 5.85 52.1486 5.85 51.48V7.02C5.85 6.39321 6.35143 5.85 7.02 5.85H51.48C52.1068 5.85 52.65 6.35143 52.65 7.02V28.08C52.65 28.7068 53.1514 29.25 53.82 29.25H57.33C57.9568 29.25 58.5 28.7486 58.5 28.08V1.17C58.5 0.543214 57.9986 0 57.33 0H1.17C0.501428 0 0 0.501428 0 1.17ZM26.7011 9.36H9.945C9.31821 9.36 8.775 9.86143 8.775 10.53V27.2861C8.775 27.9129 9.27643 28.4561 9.945 28.4561H26.7011C27.3279 28.4561 27.8711 27.9546 27.8711 27.2861V10.53C27.8293 9.90321 27.3279 9.36 26.7011 9.36ZM30.6707 10.53V27.2861C30.6707 27.9129 31.1721 28.4561 31.8407 28.4561H48.5968C49.2236 28.4561 49.7668 27.9546 49.7668 27.2861V10.53C49.7668 9.90321 49.2654 9.36 48.5968 9.36H31.8407C31.1721 9.36 30.6707 9.90321 30.6707 10.53ZM9.945 50.6025H26.7011C27.3279 50.6025 27.8711 50.1011 27.8711 49.4325V32.6764C27.8711 32.0496 27.3696 31.5064 26.7011 31.5064H9.945C9.31821 31.5064 8.775 32.0079 8.775 32.6764V49.4325C8.775 50.0593 9.27643 50.6025 9.945 50.6025ZM31.6736 58.5H57.33C57.9568 58.5 58.5 57.9986 58.5 57.33V53.82C58.5 53.1932 57.9986 52.65 57.33 52.65H31.6736C31.0468 52.65 30.5036 53.1514 30.5036 53.82V57.33C30.5036 57.9986 31.005 58.5 31.6736 58.5ZM31.6736 37.1893H57.33C57.9568 37.1893 58.5 36.6879 58.5 36.0193V32.5093C58.5 31.8825 57.9986 31.3393 57.33 31.3393H31.6736C31.0468 31.3393 30.5036 31.8407 30.5036 32.5093V36.0193C30.5036 36.6879 31.005 37.1893 31.6736 37.1893ZM31.6736 47.8446H57.33C57.9568 47.8446 58.5 47.3432 58.5 46.6746V43.1646C58.5 42.5379 57.9986 41.9946 57.33 41.9946H31.6736C31.0468 41.9946 30.5036 42.4961 30.5036 43.1646V46.6746C30.5036 47.3432 31.005 47.8446 31.6736 47.8446Z" fill="#E8F1FC"/>
</svg>
