<svg width="13" height="13" viewBox="0 0 13 13" fill="none" xmlns="http://www.w3.org/2000/svg">
<path fill-rule="evenodd" clip-rule="evenodd" d="M6.125 0C9.50742 0 12.25 2.74258 12.25 6.125C12.25 9.50742 9.50742 12.25 6.125 12.25C2.74258 12.25 0 9.50742 0 6.125C0 2.74258 2.74258 0 6.125 0ZM6.125 0.875C5.41561 0.875 4.7281 1.01305 4.08159 1.28778C3.45694 1.55158 2.89518 1.93019 2.41269 2.41269C1.93019 2.89518 1.55158 3.45694 1.28778 4.08159C1.01305 4.7281 0.875 5.41561 0.875 6.125C0.875 6.83439 1.01442 7.5219 1.28778 8.16841C1.55158 8.79305 1.93019 9.35482 2.41269 9.83731C2.89518 10.3198 3.45694 10.6984 4.08159 10.9622C4.7281 11.237 5.41561 11.375 6.125 11.375C6.83439 11.375 7.5219 11.2356 8.16841 10.9622C8.79305 10.6984 9.35482 10.3198 9.83731 9.83731C10.3198 9.35482 10.6984 8.79305 10.9622 8.16841C11.237 7.5219 11.375 6.83439 11.375 6.125C11.375 5.41561 11.2356 4.7281 10.9622 4.08159C10.6984 3.45694 10.3198 2.89518 9.83731 2.41269C9.35482 1.93019 8.79305 1.55158 8.16841 1.28778C7.5219 1.01305 6.83439 0.875 6.125 0.875ZM5.25 7V2.625H6.125V6.125H9.625V7H5.25Z" fill="#3A84FF"/>
</svg>
