<?xml version="1.0" encoding="UTF-8"?>
<svg width="64px" height="64px" viewBox="0 0 64 64" version="1.1" xmlns="http://www.w3.org/2000/svg" xmlns:xlink="http://www.w3.org/1999/xlink">
    <title>envi./docker</title>
    <g id="envi./docker" stroke="none" stroke-width="1" fill="none" fill-rule="evenodd">
        <polygon id="多边形" fill="#3A84FF" points="32 5 51.0918831 12.9081169 59 32 51.0918831 51.0918831 32 59 12.9081169 51.0918831 5 32 12.9081169 12.9081169"></polygon>
        <g id="docker" transform="translate(14.000000, 18.000000)" fill="#FFFFFF" fill-rule="nonzero">
            <path d="M8.03325586,23.1724724 C6.89313421,23.1724724 5.85969063,22.2390395 5.85969063,21.1055852 C5.85969063,19.9721309 6.79312354,19.0336975 8.03492272,19.0336975 C9.28172243,19.0336975 10.218489,19.9671304 10.218489,21.1039184 C10.218489,22.2407064 9.18171172,23.1708056 8.04325693,23.1708056 L8.03325586,23.1724724 Z M34.7227703,11.899603 C34.4977462,10.2460932 33.4726369,8.89928285 32.1224928,7.86583927 L31.5974368,7.44912813 L31.1740583,7.96584994 C30.3506371,8.89928285 30.0239356,10.5544595 30.1239462,11.7912581 C30.2239569,12.7280247 30.5239889,13.658124 31.0473781,14.3815345 C30.6239996,14.5982243 30.1006104,14.7982456 29.697234,15.0099348 C28.7923391,15.2987621 27.8467201,15.4394792 26.8969353,15.426646 L0.160749244,15.426646 L0.0607385729,16.0433784 C-0.145948566,18.0582647 0.176953511,20.0922031 0.997505164,21.944008 L1.40421524,22.6690854 L1.40421524,22.7690961 C3.90448201,26.907871 8.35495687,28.7697363 13.2021407,28.7697363 C22.5264689,28.7697363 30.1739516,24.7359726 33.7993384,16.0467121 C36.1745918,16.1500565 38.5731811,15.5299903 39.699968,13.2530807 L40,12.7363589 L39.4999466,12.424659 C38.1498026,11.6012378 36.2996052,11.4912261 34.7494398,11.9079372 L34.7194366,11.9112709 L34.7227703,11.899603 Z M21.3746794,10.2460932 L17.3275809,10.2460932 L17.3275809,14.2798569 L21.3780131,14.2798569 L21.3780131,10.2427595 L21.3746794,10.2477601 L21.3746794,10.2460932 Z M21.3746794,5.17388536 L17.3275809,5.17388536 L17.3275809,9.20764908 L21.3780131,9.20764908 L21.3780131,5.1788859 L21.3746794,5.17388536 L21.3746794,5.17388536 Z M21.3746794,0 L17.3275809,0 L17.3275809,4.03376371 L21.3780131,4.03376371 L21.3780131,0 L21.3746794,0 Z M26.3252076,10.2460932 L22.3014449,10.2460932 L22.3014449,14.2798569 L26.3352086,14.2798569 L26.3352086,10.2427595 L26.3235408,10.2477601 L26.3252076,10.2460932 Z M11.3269407,10.2460932 L7.30484482,10.2460932 L7.30484482,14.2798569 L11.3419423,14.2798569 L11.3419423,10.2427595 L11.3252738,10.2477601 L11.3269407,10.2460932 Z M16.3774795,10.2460932 L12.3770527,10.2460932 L12.3770527,14.2798569 L16.4008153,14.2798569 L16.4008153,10.2427595 L16.3758127,10.2477601 L16.3774795,10.2460932 Z M6.32640711,10.2460932 L2.33264762,10.2460932 L2.33264762,14.2798569 L6.37974612,14.2798569 L6.37974612,10.2427595 L6.32974078,10.2477601 L6.32640711,10.2460932 Z M16.3774795,5.17388536 L12.3770527,5.17388536 L12.3770527,9.20764908 L16.4008153,9.20764908 L16.4008153,5.1788859 L16.3758127,5.17388536 L16.3774795,5.17388536 Z M11.301938,5.17388536 L7.31151221,5.17388536 L7.31151221,9.20764908 L11.333608,9.20764908 L11.333608,5.1788859 L11.3069385,5.17388536 L11.301938,5.17388536 Z" id="形状"></path>
        </g>
    </g>
</svg>