<svg width="14" height="14" viewBox="0 0 14 14" fill="none" xmlns="http://www.w3.org/2000/svg">
<g clip-path="url(#clip0_563_624)">
<path d="M7 0.875C10.3824 0.875 13.125 3.61758 13.125 7C13.125 10.3824 10.3824 13.125 7 13.125C3.61758 13.125 0.875 10.3824 0.875 7C0.875 3.61758 3.61758 0.875 7 0.875ZM7 1.75C6.29061 1.75 5.6031 1.88805 4.95659 2.16278C4.33194 2.42658 3.77018 2.80519 3.28769 3.28769C2.80519 3.77018 2.42658 4.33194 2.16278 4.95659C1.88805 5.6031 1.75 6.29061 1.75 7C1.75 7.70939 1.88942 8.3969 2.16278 9.04341C2.42658 9.66805 2.80519 10.2298 3.28769 10.7123C3.77018 11.1948 4.33194 11.5734 4.95659 11.8372C5.6031 12.112 6.29061 12.25 7 12.25C7.70939 12.25 8.3969 12.1106 9.04341 11.8372C9.66805 11.5734 10.2298 11.1948 10.7123 10.7123C11.1948 10.2298 11.5734 9.66805 11.8372 9.04341C12.112 8.3969 12.25 7.70939 12.25 7C12.25 6.29061 12.1106 5.6031 11.8372 4.95659C11.5734 4.33194 11.1948 3.77018 10.7123 3.28769C10.2298 2.80519 9.66805 2.42658 9.04341 2.16278C8.3969 1.88805 7.70939 1.75 7 1.75ZM8.85616 4.52513L9.47516 5.14413L7.61883 7.00045L9.4747 8.85633L8.85616 9.47487L7.00028 7.619L5.14413 9.47516L4.52513 8.85616L6.38128 7L4.52513 5.14384L5.14367 4.5253L6.99983 6.38145L8.85616 4.52513Z" fill="#979BA5"/>
</g>
<defs>
<clipPath id="clip0_563_624">
<rect width="14" height="14" fill="white"/>
</clipPath>
</defs>
</svg>
