<svg width="15" height="14" viewBox="0 0 15 14" fill="none" xmlns="http://www.w3.org/2000/svg">
<path fill-rule="evenodd" clip-rule="evenodd" d="M12.5575 6.40094C12.1397 6.95031 11.3553 7.05719 10.8059 6.63937C10.2562 6.22125 10.1497 5.43719 10.5675 4.8875C10.9853 4.33813 11.7697 4.23156 12.3191 4.64937C12.8688 5.06719 12.9753 5.85125 12.5575 6.40094ZM8.495 6.40094C8.07719 6.95031 7.29281 7.05719 6.74344 6.63937C6.19375 6.22125 6.08719 5.43719 6.505 4.8875C6.92281 4.33813 7.70719 4.23156 8.25656 4.64937C8.80625 5.06719 8.91281 5.85125 8.495 6.40094ZM4.4325 6.40094C4.01469 6.95031 3.23031 7.05719 2.68094 6.63937C2.13125 6.22125 2.02469 5.43719 2.4425 4.8875C2.86031 4.33813 3.64469 4.23156 4.19406 4.64937C4.74375 5.06719 4.85031 5.85125 4.4325 6.40094ZM13.1572 0H1.84281C0.810938 0 0 0.796562 0 1.81094V9.12656C0 10.1406 0.810938 11.25 1.84281 11.25H5.19781L6.25 12.3631L7.5 13.6853L8.75 12.3631L9.80219 11.25H10.1675H13.1572C14.1891 11.25 15 10.1406 15 9.12656V1.81094C15 0.796562 14.1891 0 13.1572 0Z" fill="#979BA5"/>
</svg>
