<svg width="14" height="14" viewBox="0 0 14 14" fill="none" xmlns="http://www.w3.org/2000/svg">
<path d="M5.2751 10.593C5.21505 10.653 5.14072 10.6968 5.0591 10.7202L1.4303 11.7634C1.38741 11.7759 1.34196 11.7766 1.29868 11.7656C1.2554 11.7545 1.21589 11.732 1.18427 11.7005C1.15264 11.6689 1.13006 11.6295 1.11888 11.5862C1.10769 11.543 1.10832 11.4975 1.1207 11.4546L2.1647 7.825C2.1882 7.74365 2.23196 7.66961 2.2919 7.6098L9.6807 0.221C9.77444 0.127448 9.90147 0.0749065 10.0339 0.0749065C10.1663 0.0749065 10.2934 0.127448 10.3871 0.221L12.6631 2.497C12.7095 2.54343 12.7464 2.59856 12.7715 2.65923C12.7967 2.7199 12.8096 2.78493 12.8096 2.8506C12.8096 2.91627 12.7967 2.9813 12.7715 3.04197C12.7464 3.10264 12.7095 3.15777 12.6631 3.2042L5.2751 10.593ZM9.1503 2.5194L10.3655 3.7354L11.2495 2.8506L10.0335 1.6354L9.1503 2.5194ZM8.3543 3.3146L3.3127 8.357L2.8223 10.0626L4.5279 9.5722L9.5695 4.5306L8.3543 3.3146ZM2.0175 0.1266C1.9591 -0.0422 1.8655 -0.0422 1.8071 0.1266L1.4839 1.0802C1.44648 1.17284 1.39079 1.25699 1.32014 1.32764C1.24949 1.39829 1.16534 1.45398 1.0727 1.4914L0.1263 1.813C-0.0416998 1.8706 -0.0424998 1.965 0.1263 2.0242L1.0663 2.3522C1.2343 2.4098 1.4199 2.5962 1.4783 2.765L1.8063 3.7186C1.8639 3.8874 1.9583 3.8866 2.0151 3.7186L2.3351 2.7682C2.37247 2.67544 2.42814 2.59115 2.49878 2.52037C2.56943 2.44958 2.65361 2.39375 2.7463 2.3562L3.7063 2.0266C3.8759 1.969 3.8759 1.8746 3.7063 1.8186L2.7607 1.4986C2.66788 1.46116 2.58352 1.40548 2.51262 1.33485C2.44171 1.26421 2.3857 1.18007 2.3479 1.0874L2.0175 0.1274V0.1266ZM11.2983 8.597C11.2175 8.3634 11.0863 8.3634 11.0063 8.597L10.5559 9.9194C10.4759 10.1538 10.2191 10.4106 9.9839 10.4906L8.6679 10.937C8.4335 11.017 8.4327 11.1482 8.6671 11.229L9.9751 11.6834C10.2095 11.765 10.4671 12.0226 10.5479 12.2562L11.0039 13.5802C11.0855 13.8138 11.2159 13.8138 11.2951 13.5794L11.7415 12.2618C11.8207 12.0274 12.0775 11.7698 12.3119 11.6898L13.6487 11.2338C13.8839 11.153 13.8831 11.0226 13.6487 10.9434L12.3327 10.4994C12.0975 10.4202 11.8391 10.1642 11.7583 9.9306L11.2983 8.597Z" fill="#3A84FF"/>
</svg>
