<svg width="10" height="12" viewBox="0 0 10 12" fill="none" xmlns="http://www.w3.org/2000/svg">
<path fill-rule="evenodd" clip-rule="evenodd" d="M9.5 12C9.77614 12 10 11.8082 10 11.5715L10 3.04938L6.28136 -8.81377e-07L0.500001 -1.3868e-06C0.223865 -1.41094e-06 1.03229e-06 0.191998 1.01161e-06 0.428537L3.7464e-08 11.5715C1.6765e-08 11.8082 0.223864 12 0.5 12L9.5 12ZM9.09091 11.0769L0.909091 11.0769L0.909092 0.923075L5.22727 0.923076L5.22727 3.03069C5.22727 3.52292 5.67591 3.92308 6.22727 3.92308L9.09091 3.92308L9.09091 11.0769ZM8.49273 3L6.22727 3C6.18477 3 6.15432 2.98985 6.13636 2.98085L6.13636 1.06777L8.49273 3ZM8 6.5L8 5.5L2 5.5L2 6.5L8 6.5ZM6 8L6 7L2 7L2 8L6 8ZM7.5 10L7.5 9L2 9L2 10L7.5 10Z" fill="#3A84FF"/>
</svg>
