<svg width="14" height="13" viewBox="0 0 14 13" fill="none" xmlns="http://www.w3.org/2000/svg">
<path d="M13.0936 2.63565H7.45689C7.25545 2.63565 7.15002 2.55002 6.90002 2.30002L4.83817 0.330514C4.63673 0.110171 4.43529 0 4.13313 0H0.906481C0.40288 0 0 0.550857 0 1.10171V11.8985C0 12.5595 0.40288 13.0002 0.906481 13.0002H13.0936C13.5972 13.0002 14.0001 12.4494 14.0001 11.8985V3.73737C14.0001 3.07634 13.5972 2.63565 13.0936 2.63565ZM8.86337 10.6951C8.86337 11.0256 8.66193 11.2459 8.35977 11.2459H2.11512C1.81296 11.2459 1.61152 11.0256 1.61152 10.6951C1.61152 10.3646 1.81296 10.1442 2.11512 10.1442H8.46049C8.66193 10.1442 8.86337 10.3646 8.86337 10.6951ZM11.4821 10.6951C11.4821 11.0256 11.2807 11.2459 10.9785 11.2459H10.0756C9.77345 11.2459 9.56662 11.0256 9.56662 10.6951C9.56662 10.3646 9.77345 10.1442 10.0756 10.1442H10.9785C11.2807 10.1442 11.4821 10.3646 11.4821 10.6951Z" fill="#96A2B9"/>
</svg>
