<svg width="13" height="11" viewBox="0 0 13 11" fill="none" xmlns="http://www.w3.org/2000/svg">
<path fill-rule="evenodd" clip-rule="evenodd" d="M0.204484 0H12.0455C12.1585 0 12.25 0.0915525 12.25 0.204507V1.10814C12.25 1.2211 12.1585 1.31265 12.0455 1.31265H0.204484C0.0915424 1.31265 0 1.2211 0 1.10814V0.204507C0.00118885 0.0903635 0.0915424 0 0.204484 0ZM4.57948 4.59308H12.0455C12.1585 4.59308 12.25 4.68463 12.25 4.79759V5.70122C12.25 5.81418 12.1585 5.90573 12.0455 5.90573H4.57948C4.46654 5.90573 4.375 5.81418 4.375 5.70122V4.79759C4.375 4.68463 4.46654 4.59308 4.57948 4.59308ZM2.625 3.19364C2.625 3.133 2.57626 3.08425 2.51562 3.08425C2.48947 3.08425 2.46331 3.09376 2.44429 3.1116L0.186651 5.08414C0.0951091 5.1638 0.0867871 5.30172 0.165252 5.39327L0.186651 5.41468L2.44429 7.38246C2.48947 7.4217 2.55842 7.41694 2.59885 7.37176C2.61668 7.35155 2.62619 7.32658 2.62619 7.30042V3.19364H2.625ZM0.204484 9.18735H12.0455C12.1585 9.18735 12.25 9.2789 12.25 9.39186V10.2955C12.25 10.4084 12.1585 10.5 12.0455 10.5H0.204484C0.0915424 10.5 0 10.4084 0 10.2955V9.39186C0.00118885 9.2789 0.0915424 9.18735 0.204484 9.18735Z" fill="#4D4F56"/>
</svg>
