<svg width="14" height="14" viewBox="0 0 14 14" fill="none" xmlns="http://www.w3.org/2000/svg">
<path d="M0.52732 6.05C0.37732 6.05 0.22732 6 0.12732 5.85C-0.0726801 5.65 -0.0226801 5.3 0.17732 5.15L6.07732 0.3C6.62732 -0.1 7.42732 -0.1 7.92732 0.3L13.8273 5.1C14.0273 5.25 14.0773 5.6 13.8773 5.8C13.6773 6 13.3773 6.05 13.1773 5.85L7.32732 1.15C7.17732 1.05 6.87732 1.05 6.72732 1.15L0.82732 5.95C0.72732 6.05 0.62732 6.05 0.52732 6.05ZM11.7773 13.05H8.52732C8.22732 13.05 8.02732 12.85 8.02732 12.55V10.2C8.02732 9.85 7.42732 9.5 6.97732 9.5C6.52732 9.5 5.97732 9.8 5.97732 10.2V12.55C5.97732 12.85 5.77732 13.05 5.47732 13.05H2.32732C1.57732 13.05 1.02732 12.5 1.02732 11.8V7.05C1.02732 6.75 1.22732 6.55 1.52732 6.55C1.82732 6.55 2.02732 6.75 2.02732 7.05V11.8C2.02732 11.95 2.12732 12.05 2.32732 12.05H5.02732V10.2C5.02732 9.2 6.07732 8.5 7.02732 8.5C7.97732 8.5 9.07732 9.2 9.07732 10.2V12.05H11.8273C11.9773 12.05 12.0773 12.05 12.0773 11.75V7.05C12.0773 6.75 12.2773 6.55 12.5773 6.55C12.8773 6.55 13.0773 6.75 13.0773 7.05V11.8C13.0273 12.55 12.5273 13.05 11.7773 13.05Z" fill="#4D4F56"/>
</svg>
