<svg xmlns="http://www.w3.org/2000/svg" viewBox="0 0 32 32" class="design-iconfont">
  <path d="M15.3401753,3 L15.3401753,5 L4.34017533,5 L4.34017533,27 L26.3401753,27 L26.3401753,18 L28.3401753,18 L28.3401753,27 C28.3401753,28.1045695 27.4447448,29 26.3401753,29 L4.34017533,29 C3.23560583,29 2.34017533,28.1045695 2.34017533,27 L2.34017533,5 C2.34017533,3.8954305 3.23560583,3 4.34017533,3 L15.3401753,3 Z M29,9.17061666 C24.207208,8.68469277 19.5849643,11.0415166 17.1840727,15.1954092 C16.9254625,15.6462604 16.6996779,16.1151703 16.5084565,16.5985302 L18.5255964,17.7631264 L11.1382299,20.4031411 L9.68194132,12.6304758 L12.4050802,14.2026808 L12.6368633,13.8012207 C15.9331469,8.10926164 23.1667829,6.06221499 29,9.17061666 Z" fill="#979BA5" fill-rule="evenodd"/>
</svg>
