<svg xmlns="http://www.w3.org/2000/svg" viewBox="0 0 41 40" class="design-iconfont">
  <path d="M19.5,0 L19.5,3 L3,3 L3,36 L36,36 L36,22.5 L39,22.5 L39,36 C39,37.6568542 37.6568542,39 36,39 L3,39 C1.34314575,39 -3.55271368e-15,37.6568542 -3.55271368e-15,36 L-3.55271368e-15,3 C-3.55271368e-15,1.34314575 1.34314575,0 3,0 L19.5,0 Z M39.989737,9.25592499 C32.800549,8.52703916 25.8671835,12.062275 22.2658461,18.2931138 C21.8779307,18.9693907 21.5392538,19.6727554 21.2524217,20.3977953 L24.2781316,22.1446897 L13.1970818,26.1047117 L11.012649,14.4457137 L15.0973573,16.8040212 L15.4450319,16.2018311 C20.3894574,7.66389246 31.2399114,4.59332249 39.989737,9.25592499 Z" transform="translate(.5103 .5)" fill="#3A84FF" fill-rule="nonzero"/>
</svg>
