<svg width="14" height="14" viewBox="0 0 14 14" fill="none" xmlns="http://www.w3.org/2000/svg">
<path d="M7 0C3.13438 0 0 3.13438 0 7C0 10.8656 3.13438 14 7 14C10.8656 14 14 10.8656 14 7C14 3.13438 10.8656 0 7 0ZM7 1C7.81094 1 8.59531 1.15781 9.33438 1.47187C10.0484 1.77344 10.6906 2.20625 11.2422 2.75781C11.7937 3.30938 12.2266 3.95156 12.5281 4.66563C12.8406 5.40469 13 6.19063 13 7C13 7.80937 12.8422 8.59531 12.5281 9.33438C12.2266 10.0484 11.7937 10.6906 11.2422 11.2422C10.6906 11.7937 10.0484 12.2266 9.33438 12.5281C8.59531 12.8406 7.80937 13 7 13C6.19063 13 5.40469 12.8422 4.66563 12.5281C3.95156 12.2266 3.30938 11.7937 2.75781 11.2422C2.20625 10.6906 1.77344 10.0484 1.47187 9.33438C1.15937 8.59531 1 7.80937 1 7C1 6.19063 1.15781 5.40469 1.47187 4.66563C1.77344 3.95156 2.20625 3.30938 2.75781 2.75781C3.30938 2.20625 3.95156 1.77344 4.66563 1.47187C5.40469 1.15781 6.18906 1 7 1ZM7.60634 5.3476C7.38598 5.23626 7.08929 5.21684 6.71627 5.28935C6.29351 5.37152 5.89241 5.59165 5.51297 5.94974C5.13352 6.30782 5.53455 6.63833 5.77083 6.38016C6.00711 6.12199 6.21726 5.97502 6.40129 5.93925C6.57536 5.90541 6.67628 5.95988 6.70403 6.10266C6.72653 6.21842 6.70088 6.43164 6.62707 6.74233C6.55326 7.05302 6.41609 7.54221 6.21554 8.20991C5.85237 9.42182 5.69554 10.1551 5.74504 10.4098C5.80355 10.7108 5.95337 10.9239 6.19452 11.0492C6.43566 11.1746 6.74026 11.2015 7.1083 11.1299C7.54598 11.0448 7.96578 10.8081 8.36771 10.4196C8.76963 10.0311 8.31212 9.74861 8.09696 9.98265C7.8818 10.2167 7.67723 10.3526 7.48326 10.3903C7.25945 10.4338 7.12767 10.3533 7.08791 10.1488C7.06166 10.0137 7.08943 9.79806 7.17121 9.50184C7.78742 7.38777 8.06589 6.17833 8.00664 5.87348C7.96013 5.63424 7.8267 5.45895 7.60634 5.3476ZM7.75 4.5C8.16421 4.5 8.5 4.16421 8.5 3.75C8.5 3.33579 8.16421 3 7.75 3C7.33579 3 7 3.33579 7 3.75C7 4.16421 7.33579 4.5 7.75 4.5Z" fill="#3A84FF"/>
</svg>
