<svg width="16" height="16" viewBox="0 0 16 16" fill="none" xmlns="http://www.w3.org/2000/svg">
<path fill-rule="evenodd" clip-rule="evenodd" d="M8 2C8.81094 2 9.59687 2.15781 10.3359 2.47187C11.05 2.77344 11.6922 3.20625 12.2438 3.75781C12.7953 4.30938 13.2281 4.95156 13.5297 5.66563C13.8422 6.40469 14.0016 7.19063 14.0016 8.00156C14.0016 8.8125 13.8438 9.59844 13.5297 10.3375C13.2281 11.0516 12.7953 11.6938 12.2438 12.2453C11.6922 12.7969 11.05 13.2297 10.3359 13.5312C9.59687 13.8438 8.81094 14.0031 8 14.0031C7.18906 14.0031 6.40313 13.8453 5.66406 13.5312C4.95 13.2297 4.30781 12.7969 3.75625 12.2453C3.20469 11.6938 2.77188 11.0516 2.47031 10.3375C2.15781 9.59844 1.99844 8.8125 1.99844 8.00156C1.99844 7.19063 2.15625 6.40469 2.47031 5.66563C2.77188 4.95156 3.20469 4.30938 3.75625 3.75781C4.30781 3.20625 4.95 2.77344 5.66406 2.47187C6.40313 2.15781 7.18906 2 8 2ZM8 1C4.13438 1 1 4.13438 1 8C1 11.8656 4.13438 15 8 15C11.8656 15 15 11.8656 15 8C15 4.13438 11.8656 1 8 1ZM8.7458 4.82989L8.5 9.5C8.5 9.77614 8.27614 10 8 10C7.72386 10 7.5 9.77614 7.5 9.5L7.2542 4.82989C7.25143 4.80364 7.25 4.77699 7.25 4.75C7.25 4.33579 7.58579 4 8 4C8.41421 4 8.75 4.33579 8.75 4.75C8.75 4.77699 8.74857 4.80364 8.7458 4.82989ZM8.75 11.25C8.75 11.6642 8.41421 12 8 12C7.58579 12 7.25 11.6642 7.25 11.25C7.25 10.8358 7.58579 10.5 8 10.5C8.41421 10.5 8.75 10.8358 8.75 11.25Z" fill="#EA3636"/>
<mask id="mask0_116_3789" style="mask-type:luminance" maskUnits="userSpaceOnUse" x="1" y="1" width="14" height="14">
<path fill-rule="evenodd" clip-rule="evenodd" d="M8 2C8.81094 2 9.59687 2.15781 10.3359 2.47187C11.05 2.77344 11.6922 3.20625 12.2438 3.75781C12.7953 4.30938 13.2281 4.95156 13.5297 5.66563C13.8422 6.40469 14.0016 7.19063 14.0016 8.00156C14.0016 8.8125 13.8438 9.59844 13.5297 10.3375C13.2281 11.0516 12.7953 11.6938 12.2438 12.2453C11.6922 12.7969 11.05 13.2297 10.3359 13.5312C9.59687 13.8438 8.81094 14.0031 8 14.0031C7.18906 14.0031 6.40313 13.8453 5.66406 13.5312C4.95 13.2297 4.30781 12.7969 3.75625 12.2453C3.20469 11.6938 2.77188 11.0516 2.47031 10.3375C2.15781 9.59844 1.99844 8.8125 1.99844 8.00156C1.99844 7.19063 2.15625 6.40469 2.47031 5.66563C2.77188 4.95156 3.20469 4.30938 3.75625 3.75781C4.30781 3.20625 4.95 2.77344 5.66406 2.47187C6.40313 2.15781 7.18906 2 8 2ZM8 1C4.13438 1 1 4.13438 1 8C1 11.8656 4.13438 15 8 15C11.8656 15 15 11.8656 15 8C15 4.13438 11.8656 1 8 1ZM8.7458 4.82989L8.5 9.5C8.5 9.77614 8.27614 10 8 10C7.72386 10 7.5 9.77614 7.5 9.5L7.2542 4.82989C7.25143 4.80364 7.25 4.77699 7.25 4.75C7.25 4.33579 7.58579 4 8 4C8.41421 4 8.75 4.33579 8.75 4.75C8.75 4.77699 8.74857 4.80364 8.7458 4.82989ZM8.75 11.25C8.75 11.6642 8.41421 12 8 12C7.58579 12 7.25 11.6642 7.25 11.25C7.25 10.8358 7.58579 10.5 8 10.5C8.41421 10.5 8.75 10.8358 8.75 11.25Z" fill="white"/>
</mask>
<g mask="url(#mask0_116_3789)">
</g>
</svg>
