<svg width="52" height="52" viewBox="0 0 52 52" fill="none" xmlns="http://www.w3.org/2000/svg">
<path d="M9.97429 25.5517H42.9226C44.379 25.5517 45.7757 26.1303 46.8056 27.1601C47.8354 28.1899 48.4139 29.5867 48.4139 31.0431V42.0258C48.4139 43.4822 47.8354 44.879 46.8056 45.9088C45.7757 46.9387 44.379 47.5172 42.9226 47.5172H9.97429C9.25315 47.5172 8.53907 47.3752 7.87283 47.0992C7.20658 46.8232 6.60122 46.4187 6.0913 45.9088C5.06146 44.879 4.48291 43.4822 4.48291 42.0258V31.0431C4.48291 29.5867 5.06146 28.1899 6.0913 27.1601C7.12113 26.1303 8.51788 25.5517 9.97429 25.5517Z" fill="#A3C5FD"/>
<path d="M40.3824 41.9569H12.6512C12.1126 41.9456 11.5998 41.7238 11.2228 41.3389C10.8459 40.954 10.6348 40.4367 10.6348 39.8979C10.6348 39.3592 10.8459 38.8419 11.2228 38.457C11.5998 38.0721 12.1126 37.8502 12.6512 37.839H40.3824C40.921 37.8502 41.4338 38.0721 41.8108 38.457C42.1877 38.8419 42.3988 39.3592 42.3988 39.8979C42.3988 40.4367 42.1877 40.954 41.8108 41.3389C41.4338 41.7238 40.921 41.9456 40.3824 41.9569Z" fill="white"/>
<path fill-rule="evenodd" clip-rule="evenodd" d="M15.459 3.56239C15.732 3.56472 16.002 3.62082 16.2529 3.7284C16.5041 3.83614 16.7318 3.99289 16.9219 4.18934L21.9688 9.23719C22.2567 9.5252 22.4528 9.89245 22.5322 10.2919C22.6116 10.6912 22.5708 11.1052 22.415 11.4813C22.2592 11.8574 21.9957 12.1789 21.6572 12.4052C21.3188 12.6314 20.9208 12.7526 20.5137 12.7528C20.2432 12.7532 19.9745 12.7001 19.7246 12.5966C19.4749 12.4931 19.2484 12.3407 19.0576 12.1493L17.5254 10.6171V22.12C17.5253 22.6661 17.308 23.1899 16.9219 23.5761C16.5357 23.9622 16.0119 24.1795 15.4658 24.1796C14.9198 24.1796 14.396 23.9621 14.0098 23.5761C13.6236 23.1899 13.4063 22.6661 13.4062 22.12V10.6171L11.874 12.1493C11.683 12.3407 11.4559 12.4921 11.2061 12.5956C10.9562 12.6991 10.6884 12.753 10.418 12.7528C10.1476 12.7532 9.87969 12.7001 9.62988 12.5966C9.38 12.493 9.15284 12.3409 8.96191 12.1493C8.57585 11.7631 8.3594 11.2393 8.35938 10.6932C8.35938 10.1472 8.57588 9.62338 8.96191 9.23719L13.748 4.45008C13.8183 4.34849 13.8976 4.2527 13.9854 4.16493C14.1785 3.97179 14.4083 3.81922 14.6611 3.71571C14.9141 3.61216 15.1857 3.56012 15.459 3.56239ZM37.3994 3.58583C37.9456 3.58583 38.4702 3.80313 38.8564 4.18934C39.2425 4.57549 39.4589 5.09938 39.459 5.6454V17.1483L40.9912 15.6161C41.3795 15.2405 41.9002 15.0325 42.4404 15.037C42.9805 15.0416 43.497 15.2586 43.8789 15.6405C44.2608 16.0225 44.4779 16.5389 44.4824 17.079C44.4869 17.6192 44.2789 18.1399 43.9033 18.5282L38.8633 23.5682C38.8609 23.5707 38.8589 23.5736 38.8564 23.5761C38.8461 23.5864 38.8338 23.5952 38.8232 23.6054C38.7948 23.6326 38.7654 23.6588 38.7354 23.6845C38.7195 23.698 38.7037 23.7115 38.6875 23.7245C38.641 23.7618 38.5938 23.7986 38.5439 23.8319C38.4974 23.863 38.449 23.8908 38.4004 23.9179C38.3716 23.9339 38.342 23.9481 38.3125 23.9628C38.2876 23.9751 38.2626 23.9867 38.2373 23.9979C38.2205 24.0054 38.2045 24.0153 38.1875 24.0223C38.1789 24.0259 38.1697 24.0277 38.1611 24.0311C38.054 24.0738 37.9438 24.1076 37.8311 24.1317C37.8271 24.1326 37.8233 24.1338 37.8193 24.1347C37.814 24.1358 37.809 24.1385 37.8037 24.1395L37.7568 24.1454C37.7215 24.1516 37.6861 24.1576 37.6504 24.162C37.624 24.1652 37.5978 24.1686 37.5713 24.1708C37.5298 24.1743 37.4881 24.1757 37.4463 24.1766C37.4308 24.177 37.415 24.1796 37.3994 24.1796C37.2679 24.1798 37.1373 24.1653 37.0088 24.1405C36.9908 24.137 36.973 24.1328 36.9551 24.1288C36.838 24.103 36.7226 24.0685 36.6113 24.0223C36.549 23.9965 36.488 23.9681 36.4287 23.9364C36.3099 23.8728 36.1978 23.7974 36.0938 23.7118L35.9434 23.5761L30.8965 18.5282C30.7052 18.337 30.5528 18.1101 30.4492 17.8602C30.3457 17.6105 30.293 17.3425 30.293 17.0722C30.2929 16.8018 30.3458 16.5339 30.4492 16.2841C30.5526 16.0343 30.7044 15.8073 30.8955 15.6161C31.0867 15.4248 31.3136 15.2724 31.5635 15.1688C31.8133 15.0653 32.0812 15.0126 32.3516 15.0126C32.622 15.0125 32.8898 15.0654 33.1396 15.1688C33.3894 15.2722 33.6164 15.424 33.8076 15.6151L35.3408 17.1483V5.6454C35.3409 5.09932 35.5572 4.5755 35.9434 4.18934C36.3295 3.80322 36.8534 3.58592 37.3994 3.58583Z" fill="#699DF4"/>
</svg>
