<svg width="14" height="14" viewBox="0 0 14 14" fill="none" xmlns="http://www.w3.org/2000/svg">
<path d="M7.97053 6.98667H10.1375C10.1836 6.98667 10.2292 6.99574 10.2718 7.01337C10.3144 7.03099 10.3531 7.05682 10.3857 7.08938C10.4182 7.12194 10.4441 7.1606 10.4617 7.20315C10.4793 7.24569 10.4884 7.29129 10.4884 7.33734V8.03867C10.4884 8.08472 10.4793 8.13032 10.4617 8.17287C10.4441 8.21541 10.4182 8.25407 10.3857 8.28663C10.3531 8.31919 10.3144 8.34502 10.2718 8.36265C10.2292 8.38027 10.1836 8.38934 10.1375 8.38934H6.27649C6.09037 8.38934 5.91188 8.31545 5.78028 8.18392C5.64867 8.0524 5.57474 7.87401 5.57474 7.68801V3.86084C5.57474 3.81479 5.58381 3.76919 5.60145 3.72664C5.61908 3.6841 5.64493 3.64544 5.67751 3.61288C5.71009 3.58031 5.74877 3.55448 5.79134 3.53686C5.83391 3.51924 5.87954 3.51017 5.92561 3.51017H6.62737C6.67345 3.51017 6.71907 3.51924 6.76164 3.53686C6.80421 3.55448 6.84289 3.58031 6.87548 3.61288C6.90806 3.64544 6.9339 3.6841 6.95154 3.72664C6.96917 3.76919 6.97825 3.81479 6.97825 3.86084V5.99499L12.7551 0.221621C12.8209 0.155881 12.9101 0.118951 13.0032 0.118951C13.0962 0.118951 13.1854 0.155881 13.2512 0.221621L13.7474 0.717463C13.8131 0.783223 13.8501 0.8724 13.8501 0.965384C13.8501 1.05837 13.8131 1.14755 13.7474 1.21331L7.97053 6.98667ZM11.8947 12.5973C12.0809 12.5973 12.2593 12.5234 12.391 12.3919C12.5226 12.2604 12.5965 12.082 12.5965 11.896V5.24456C12.5965 5.19851 12.6056 5.15291 12.6232 5.11037C12.6408 5.06782 12.6667 5.02917 12.6993 4.99661C12.7318 4.96404 12.7705 4.93821 12.8131 4.92059C12.8557 4.90297 12.9013 4.8939 12.9474 4.8939H13.6491C13.6952 4.8939 13.7408 4.90297 13.7834 4.92059C13.826 4.93821 13.8646 4.96404 13.8972 4.99661C13.9298 5.02917 13.9557 5.06782 13.9733 5.11037C13.9909 5.15291 14 5.19851 14 5.24456V13.2987C14 13.4847 13.9261 13.6631 13.7945 13.7946C13.6629 13.9261 13.4844 14 13.2982 14H0.701754C0.515638 14 0.337144 13.9261 0.205539 13.7946C0.0739347 13.6631 0 13.4847 0 13.2987V0.701333C4.36211e-09 0.515328 0.0739347 0.336941 0.205539 0.205416C0.337144 0.0738902 0.515638 4.35949e-09 0.701754 0H8.74386C8.78994 -2.1586e-09 8.83556 0.00907022 8.87813 0.0266928C8.92071 0.0443155 8.95939 0.0701454 8.99197 0.102708C9.02455 0.13527 9.0504 0.173927 9.06803 0.216472C9.08566 0.259017 9.09474 0.304616 9.09474 0.350666V1.052C9.09474 1.09805 9.08566 1.14365 9.06803 1.18619C9.0504 1.22874 9.02455 1.26739 8.99197 1.29996C8.95939 1.33252 8.92071 1.35835 8.87813 1.37597C8.83556 1.39359 8.78994 1.40266 8.74386 1.40266H2.10526C1.91915 1.40266 1.74065 1.47656 1.60905 1.60808C1.47744 1.73961 1.40351 1.91799 1.40351 2.104V11.896C1.40351 12.082 1.47744 12.2604 1.60905 12.3919C1.74065 12.5234 1.91915 12.5973 2.10526 12.5973H11.8947Z" fill="#979BA5"/>
</svg>
