<?xml version="1.0" encoding="UTF-8"?>
<svg width="64px" height="64px" viewBox="0 0 64 64" version="1.1" xmlns="http://www.w3.org/2000/svg" xmlns:xlink="http://www.w3.org/1999/xlink">
    <title>envi./linux</title>
    <g id="envi./linux" stroke="none" stroke-width="1" fill="none" fill-rule="evenodd">
        <g id="linux" transform="translate(6.000000, 2.000000)" fill-rule="nonzero">
            <path d="M26.8780019,9.2731458 C26.2825697,9.66086905 25.8256102,10.2286067 25.5694359,10.8932751 C25.306338,11.7518051 25.3478798,12.6657242 25.6732904,13.5034833 C25.9433119,14.3827843 26.483355,15.1513071 27.2103361,15.7051975 C27.5842121,15.9682954 28.0134771,16.1344625 28.4704366,16.1898515 C28.9273961,16.2452406 29.3843557,16.1690806 29.7928498,15.9613718 C30.2775039,15.6913502 30.6652271,15.2690088 30.8937069,14.7635839 C31.115263,14.2512353 31.2398883,13.7042686 31.2537356,13.1503782 C31.302201,12.444168 31.2121938,11.7379579 30.9906377,11.0663658 C30.7483107,10.3324611 30.2775039,9.70241082 29.64053,9.2731458 C29.3151194,9.06543692 28.9550907,8.92696434 28.574291,8.8715753 C28.1934914,8.81618627 27.8057682,8.85772804 27.4457395,8.99620063 C27.2449542,9.07928418 27.0510926,9.18313862 26.8710782,9.30776395" id="路径" fill="#FFFFFF"></path>
            <path d="M46.6103455,37.5354008 C46.2572404,35.5760137 45.7033501,33.6581684 44.9625217,31.816483 C44.4570968,30.4456044 43.7716575,29.143962 42.9200511,27.9530978 C42.061521,26.8106989 40.9745112,25.8483145 40.1367521,24.6920684 C39.6936398,24.0897126 39.3197638,23.4181206 38.8558806,22.8296121 C38.6689426,22.4418888 38.4889283,22.0541656 38.3089139,21.6664423 C37.7550236,20.4548072 37.2495986,19.2154776 36.5918538,18.0661551 C36.4879994,17.8861407 36.3772213,17.7061264 36.2733669,17.5330356 C36.1902833,16.4252549 36.0725816,15.3174742 36.010269,14.2096935 C36.0587344,11.9872085 35.8717964,9.75779986 35.449455,7.56993298 C35.1586626,6.52446495 34.7155503,5.5205387 34.1339654,4.60661962 C33.4554497,3.52653344 32.5830724,2.58491985 31.5583753,1.83024425 C29.8897806,0.646303633 27.8957754,0.00932973238 25.8533047,0.00240610303 C24.3508771,-0.0322120437 22.8622968,0.307045794 21.5260364,0.99940873 C20.1205396,1.76793159 18.9850644,2.95187221 18.2719306,4.38506348 C17.6072622,5.83210202 17.2541571,7.39684225 17.2333862,8.989277 C17.1779971,10.5540172 17.3233934,12.1049102 17.385706,13.6696504 C17.4480187,15.2897797 17.4134005,16.9168326 17.5449495,18.5369619 C17.5864913,19.0562341 17.6488039,19.5755063 17.6488039,20.1017021 C17.6488039,20.3648 17.6349567,20.6278979 17.628033,20.8840722 L17.6072622,20.9394613 C16.901052,22.1372491 16.1186818,23.2934952 15.2670754,24.3943523 C14.6716433,25.1490279 14.0762112,25.8967799 13.4738554,26.6376082 C12.6914853,27.5169091 12.0268169,28.4931409 11.5006211,29.5455325 C11.147516,30.4594516 10.8636472,31.4010652 10.642091,32.3565261 L10.6213201,32.432686 C10.2889859,33.533543 9.87356817,34.599782 9.37506686,35.6314027 C9.32660145,35.7283336 9.27813605,35.832188 9.23659427,35.9221952 C8.93887821,36.5383982 8.62731489,37.1546012 8.30190431,37.756957 L7.92802832,38.4562435 C7.69262493,38.8785849 7.48491605,39.3147736 7.30490168,39.7578858 C7.20104724,40.0279074 7.11796369,40.3048526 7.06949829,40.5887214 C6.9794911,41.1910771 7.02103288,41.8003565 7.18027635,42.3819414 C7.2148945,42.5273376 7.26335991,42.6727338 7.31182531,42.81813 C7.46414516,43.247395 7.64415952,43.6697364 7.85879203,44.0713069 C7.95572284,44.2582449 8.05957728,44.4382593 8.15650809,44.6251973 L8.24651527,44.7567462 C8.34344609,44.929837 8.44730053,45.1029277 8.55115497,45.2690948 L8.56500222,45.2898657 C8.68270392,45.4837273 8.81425288,45.6706653 8.93887821,45.8576033 L8.9596491,45.8852978 C9.09119806,46.0653122 9.22274701,46.2522502 9.3612196,46.4322645 C9.87356817,48.4331934 10.8151818,50.2956497 12.1099005,51.9019317 C11.9091152,52.2550368 11.7291008,52.6012183 11.5283156,52.9473997 C10.8221054,53.9720969 10.2405205,55.072954 9.79048462,56.2292001 C9.60354663,56.8246322 9.55508122,57.4546825 9.65893566,58.0708855 C9.75586647,58.6940121 10.0743534,59.2548261 10.5590075,59.6633202 C10.8844181,59.9125709 11.258294,60.0856616 11.6529409,60.1687452 C12.0475878,60.2518287 12.4560819,60.2933705 12.8645761,60.2725996 C14.4016218,60.1548979 15.9248202,59.8502582 17.3926296,59.3794514 C18.2788542,59.144048 19.1650788,58.9363391 20.0651506,58.7563248 C20.9998405,58.5416923 21.9483778,58.4101433 22.9038386,58.3686015 C23.139242,58.3755252 23.3746454,58.3616779 23.6031252,58.3478306 C24.2539463,58.4170669 24.9047675,58.4447615 25.5625123,58.4170669 L25.8048393,58.4032197 C25.9710064,58.4239906 26.1440971,58.4309142 26.3171879,58.4447615 C27.4665104,58.5070741 28.6089092,58.6247758 29.7443844,58.7978665 C30.741387,58.9501864 31.7383897,59.144048 32.721545,59.386375 C34.2378199,59.8433346 35.7956365,60.1479743 37.3811476,60.2795232 C37.7965653,60.3002941 38.2119831,60.265676 38.6274009,60.1825924 C39.035895,60.0995089 39.4236182,59.9194945 39.7559525,59.6702438 C40.2406065,59.2686733 40.5590935,58.7078594 40.6629479,58.0847327 C40.7668023,57.4685297 40.7183369,56.8384794 40.5313989,56.2430473 C40.0744394,55.0868012 39.4859309,53.9859442 38.7658735,52.9681706 C38.5166228,52.5458292 38.2812194,52.1096406 38.0319687,51.6872992 C39.1051313,50.4895113 40.0536685,49.1740218 40.8498859,47.7754486 C41.3345399,47.8031431 41.8122704,47.7477541 42.2761535,47.5954343 C43.4877887,47.1869401 44.5401803,46.3976464 45.274085,45.3452547 C45.4956412,45.0336914 45.6687319,44.6875099 45.7725864,44.3205576 C46.2503168,43.5797292 46.5757274,42.7488937 46.7280472,41.8765164 C46.9496033,40.4364015 46.9149852,38.9616685 46.6241928,37.5354008 L46.6103455,37.5354008 Z" id="路径" fill="#020204"></path>
            <path d="M19.982067,17.9207589 C19.7674345,18.197704 19.6151147,18.5231146 19.5389547,18.8623725 C19.4627948,19.2016303 19.4143294,19.5547354 19.4074058,19.9009169 C19.4281767,20.6002034 19.3727876,21.29949 19.2343151,21.9849293 C18.991988,22.6980631 18.6250357,23.3558079 18.1542289,23.9443164 C17.3441642,24.9620899 16.7071903,26.1044888 16.2710017,27.3230475 C16.0494456,28.0777231 15.9732856,28.8670169 16.0563692,29.6563106 C15.21861,30.8956403 14.4916289,32.2111298 13.8892732,33.5820085 C12.9615069,35.6521736 12.3660747,37.8608114 12.1237477,40.1179146 C11.8260316,42.8942899 12.2345258,45.6983598 13.3007647,48.2739499 C14.0831348,50.1294826 15.2739991,51.7911536 16.7833503,53.1274141 C17.5587968,53.7990062 18.4104032,54.3667438 19.3243222,54.8167797 C22.5576571,56.3953672 26.3448824,56.360749 29.5435992,54.7198489 C31.1429575,53.7851589 32.6038433,52.6289128 33.8777911,51.2926523 C34.701703,50.5449004 35.4356077,49.7071412 36.0795053,48.7932221 C37.1526678,46.9307658 37.7827181,44.8398298 37.914267,42.6935047 C38.5789355,38.9824393 38.1704413,35.1605959 36.7441737,31.6710868 C36.1833597,30.507917 35.4425314,29.4416781 34.5424595,28.5139118 C34.3001354,26.8865629 33.8292991,25.3015693 33.1438864,23.8058438 C32.6453851,22.7326813 32.0430294,21.7079841 31.5791462,20.6071271 C31.3922082,20.1570911 31.2260411,19.7001316 31.0183322,19.263943 C30.817547,18.8208307 30.5406018,18.4123365 30.2013439,18.0661551 C29.8343916,17.7268972 29.3982029,17.470723 28.9204725,17.3253267 C28.4427421,17.1730069 27.9511644,17.0899233 27.4526631,17.0760761 C26.4556605,17.0276107 25.4517342,17.152236 24.4685788,17.1176179 C23.6723615,17.0829997 22.8899914,16.9445271 22.093774,16.9929925 C21.6991271,17.0137634 21.3044802,17.0899233 20.9375279,17.2353196 C20.5636519,17.3807158 20.2382413,17.6161192 19.982067,17.9276825 M20.300554,9.26622217 C19.926678,9.29391669 19.5735729,9.45316017 19.3035513,9.70933445 C19.0335298,9.96550874 18.8327446,10.2909193 18.7219665,10.6440244 C18.5350285,11.3640819 18.4865631,12.1187575 18.5904175,12.8595858 C18.6042648,13.5311779 18.7219665,14.2027699 18.9435226,14.8397438 C19.0681479,15.1513071 19.2481623,15.4420996 19.4835657,15.6844266 C19.7189691,15.9267536 20.0166852,16.106768 20.3420958,16.1898515 C20.6536591,16.2660114 20.9790697,16.2521642 21.2767857,16.1552334 C21.5745018,16.0583026 21.8514469,15.8921355 22.0730031,15.6705793 C22.3984137,15.3382451 22.6338171,14.929751 22.7515188,14.4866387 C22.8692205,14.0435264 22.9246095,13.5796433 22.9107622,13.1157601 C22.9107622,12.5410989 22.8207551,11.9664376 22.6476643,11.4125473 C22.4745736,10.8586569 22.1768575,10.353232 21.775287,9.93089059 C21.5814254,9.73010534 21.3598693,9.55701461 21.1106186,9.43238928 C20.8544443,9.31468758 20.5774991,9.25237492 20.300554,9.26622217 M26.8780019,9.26622217 C26.2825697,9.65394542 25.8256102,10.221683 25.5694359,10.8863514 C25.306338,11.7448815 25.3478798,12.6588006 25.6732904,13.4965597 C25.9433119,14.3758606 26.483355,15.1443835 27.2103361,15.6982738 C27.5842121,15.9613718 28.0134771,16.1275389 28.4704366,16.1829279 C28.9273961,16.2383169 29.3843557,16.162157 29.7928498,15.9544481 C30.2775039,15.6844266 30.6652271,15.2620852 30.8937069,14.7566602 C31.115263,14.2443117 31.2398883,13.697345 31.2537356,13.1434546 C31.302201,12.4372444 31.2121938,11.7310342 30.9906377,11.0594422 C30.7483107,10.3255375 30.2775039,9.69548719 29.64053,9.26622217 C29.3151194,9.05851329 28.9550907,8.92004071 28.574291,8.86465167 C28.1934914,8.80926264 27.8057682,8.85080441 27.4457395,8.989277 C27.2449542,9.07236055 27.0510926,9.17621499 26.8710782,9.30084032" id="形状" fill="#FFFFFF"></path>
            <path d="M28.2142623,11.024824 C27.9927062,11.0386713 27.7849973,11.1079076 27.5980593,11.2256093 C27.4111213,11.343311 27.2518778,11.5025545 27.1272525,11.6825688 C26.8918491,12.0495212 26.7603002,12.4787862 26.7533765,12.9218985 C26.7326056,13.2473091 26.781071,13.5796433 26.8849255,13.8912066 C26.9887799,14.2027699 27.1826415,14.4797151 27.4318922,14.687424 C27.6949901,14.9020565 28.0134771,15.0266818 28.3527349,15.0474527 C28.6919927,15.0612999 29.024327,14.9712928 29.3012721,14.7774311 C29.5228283,14.6181877 29.7028426,14.4174024 29.827468,14.1750754 C29.9520933,13.939672 30.0282532,13.6765741 30.0628714,13.4134762 C30.1321077,12.9426694 30.0490241,12.4580153 29.8413152,12.0356739 C29.6266827,11.6064089 29.2597304,11.2809983 28.8166181,11.1079076 C28.6227565,11.0317477 28.4219712,11.0040531 28.2142623,11.0109768" id="路径" fill="#020204"></path>
            <path d="M20.300554,9.2731458 C19.926678,9.30084032 19.5735729,9.4600838 19.3035513,9.71625808 C19.0335298,9.97243237 18.8327446,10.2978429 18.7219665,10.650948 C18.5350285,11.3710055 18.4865631,12.1256811 18.5904175,12.8665094 C18.6042648,13.5381015 18.7219665,14.2096935 18.9435226,14.8466674 C19.0681479,15.1651544 19.2481623,15.4490232 19.4835657,15.6913502 C19.7189691,15.9336772 20.0166852,16.1136916 20.3420958,16.1967752 C20.6536591,16.2729351 20.9790697,16.2590878 21.2767857,16.162157 C21.5745018,16.0652262 21.8514469,15.8990591 22.0730031,15.677503 C22.3984137,15.3451687 22.6338171,14.9366746 22.7515188,14.4935623 C22.8692205,14.0504501 22.9246095,13.5865669 22.9107622,13.1226837 C22.9107622,12.5480225 22.8207551,11.9733613 22.6476643,11.4194709 C22.4745736,10.8655806 22.1768575,10.3601556 21.775287,9.93781422 C21.5814254,9.73702897 21.3598693,9.56393824 21.1106186,9.43931291 C20.8544443,9.32161121 20.5774991,9.25929855 20.300554,9.2731458" id="路径" fill="#FFFFFF"></path>
            <path d="M19.4074058,12.3541609 C19.3173986,12.818044 19.3381695,13.3026981 19.4835657,13.752734 C19.5943438,14.0504501 19.7605109,14.3204716 19.982067,14.5489514 C20.1205396,14.7012712 20.2797831,14.8328202 20.4667211,14.9228274 C20.6536591,15.0197582 20.861368,15.0474527 21.0690768,14.9989873 C21.2560148,14.9505219 21.4152583,14.8397438 21.53296,14.687424 C21.6506617,14.5351041 21.7337452,14.3620134 21.7891343,14.181999 C21.9483778,13.6419559 21.9345305,13.0672947 21.7614398,12.5272516 C21.6506617,12.1326047 21.4360292,11.772576 21.1313895,11.5025545 C20.9859933,11.3779291 20.8059789,11.2809983 20.6190409,11.2325329 C20.4251793,11.1840675 20.2243941,11.1979148 20.0374561,11.2809983 C19.8435944,11.3779291 19.684351,11.5371726 19.5874202,11.7310342 C19.4904893,11.9248958 19.4281767,12.1326047 19.4004822,12.3472372" id="路径" fill="#020204"></path>
            <path d="M18.5281049,18.1769331 C18.5419521,18.2392458 18.562723,18.3015585 18.5973412,18.3500239 C18.6596538,18.4469547 18.7358137,18.5231146 18.8327446,18.5854273 C18.9227517,18.6477399 19.0127589,18.703129 19.1027661,18.758518 C19.5804965,19.0839286 20.0028379,19.4854991 20.3420958,19.9563059 C20.7575135,20.6071271 21.2767857,21.1887119 21.8652942,21.6872132 C22.3153301,21.9987766 22.8415259,22.1857145 23.3884927,22.2341799 C24.0254666,22.2826454 24.6693641,22.2064854 25.2855671,22.0126238 C25.8533047,21.8464567 26.4002714,21.6110533 26.91262,21.29949 C27.7919209,20.5932798 28.7335345,19.9701532 29.7305372,19.4508809 C29.9659405,19.3677974 30.2013439,19.3054847 30.4229001,19.2016303 C30.6513799,19.1046995 30.8452415,18.9385324 30.9629432,18.7169762 C31.0391031,18.4954201 31.0875685,18.2600167 31.0944921,18.0246133 C31.1291103,17.7753626 31.2121938,17.5330356 31.2537356,17.283785 C31.3091246,17.0345343 31.2883538,16.77836 31.1983466,16.536033 C31.1014158,16.349095 30.9490959,16.1967752 30.7621579,16.0998443 C30.5752199,16.0098372 30.3675111,15.9544481 30.1598022,15.9475245 C29.7374608,15.9613718 29.322043,16.0029135 28.9135489,16.0721498 C28.3596585,16.1206152 27.8057682,16.0513789 27.2518778,16.0721498 C26.5664385,16.0929207 25.8809992,16.2452406 25.1886363,16.2729351 C24.3993426,16.3144769 23.6169724,16.1898515 22.8276787,16.1552334 C22.4884208,16.1344625 22.1422394,16.1483097 21.8029815,16.2036988 C21.4637237,16.2521642 21.1383131,16.3767895 20.8544443,16.5706511 C20.5913464,16.77836 20.3490194,16.9999162 20.113616,17.2353196 C19.9889907,17.3460976 19.8505181,17.4430284 19.7051219,17.5191884 C19.552802,17.5953483 19.3935585,17.6368901 19.2204678,17.6299664 C19.1373842,17.6161192 19.0473771,17.6161192 18.9642935,17.6299664 C18.9158281,17.6507373 18.8673627,17.6784318 18.8327446,17.71305 L18.7288901,17.8376753 C18.6596538,17.9415298 18.5973412,18.0523078 18.5488757,18.1630859" id="路径" fill="#D99A03"></path>
            <path d="M20.2659358,16.4321786 C19.9889907,16.5983457 19.7189691,16.77836 19.4489476,16.965298 C19.3035513,17.0553052 19.1858496,17.1730069 19.0958425,17.3184031 C19.0473771,17.4291812 19.0266062,17.5468829 19.0335298,17.6645846 C19.0404534,17.7822863 19.0404534,17.899988 19.0335298,18.0176897 C19.0266062,18.0938496 18.9989117,18.1769331 18.9989117,18.2600167 C18.9989117,18.3015585 18.9989117,18.3431003 19.0127589,18.3777184 C19.0266062,18.4192602 19.0404534,18.4538783 19.0681479,18.4815728 C19.1027661,18.516191 19.1512315,18.5438855 19.2066205,18.5577328 C19.2550859,18.57158 19.310475,18.5785037 19.365864,18.5923509 C19.608191,18.6615872 19.8297472,18.7931362 20.0097615,18.9662269 C20.1966995,19.132394 20.3628666,19.3262556 20.5636519,19.4854991 C21.1175422,19.9009169 21.7891343,20.1155494 22.4745736,20.1086257 C23.1600129,20.0947785 23.8385286,19.9978477 24.4962734,19.8247569 C25.0155456,19.7139789 25.5278941,19.5755063 26.0263954,19.4024155 C26.8018419,19.1116231 27.5149758,18.6892817 28.1311788,18.142315 C28.4012003,17.8792171 28.6850691,17.6438137 28.9897088,17.4291812 C29.266654,17.2560904 29.5920646,17.1383887 29.8690097,16.9722216 C29.8967043,16.9583744 29.9174751,16.9376035 29.9451697,16.9237562 C29.9659405,16.9029853 29.9867114,16.8822145 30.0005587,16.8545199 C30.0213296,16.8060545 30.0213296,16.7506655 30.0005587,16.7022001 C29.9867114,16.6537347 29.9659405,16.6121929 29.938246,16.5775748 C29.9036279,16.536033 29.8620861,16.4944912 29.8205443,16.4598731 C29.5020574,16.2244697 29.1212578,16.0929207 28.7266109,16.0790735 C28.3250404,16.0513789 27.9442408,16.0790735 27.5565175,16.0029135 C27.1964888,15.9267536 26.8433837,15.8228992 26.4972022,15.6982738 C26.1302499,15.5805721 25.7563739,15.490565 25.3686507,15.4282523 C24.4685788,15.2828561 23.5546598,15.303627 22.6615116,15.4974886 C21.8237524,15.6844266 21.0136878,16.0029135 20.2659358,16.4321786" id="路径" fill="#604405"></path>
            <path d="M20.1759286,15.490565 C19.7743581,15.7605865 19.4143294,16.0929207 19.1027661,16.4667967 C18.9227517,16.6745056 18.7773555,16.9168326 18.6804247,17.1799305 C18.618112,17.3876394 18.5765703,17.6022719 18.5419521,17.8169044 C18.5211812,17.8930643 18.507334,17.9761479 18.507334,18.0592314 C18.507334,18.1007732 18.5142576,18.142315 18.5281049,18.1769331 C18.5419521,18.2184749 18.562723,18.2530931 18.5904175,18.2807876 C18.6388829,18.329253 18.7011956,18.3569475 18.7704319,18.3707948 C18.8327446,18.384642 18.9019808,18.384642 18.9712171,18.3915657 C19.2758568,18.4400311 19.5597256,18.5646564 19.8089763,18.7446708 C20.0582269,18.9177615 20.2936303,19.1185467 20.5498046,19.2847138 C21.1313895,19.6308953 21.7960579,19.8178333 22.4745736,19.8316806 C23.1530893,19.8455278 23.8246813,19.7762915 24.4824261,19.6308953 C25.0086219,19.5339645 25.5278941,19.3885683 26.0333191,19.1947067 C26.7879947,18.8692961 27.4942049,18.4469547 28.1381024,17.9346061 C28.4358185,17.71305 28.7266109,17.4776466 28.9966324,17.2214723 C29.0866396,17.1314651 29.1766468,17.0414579 29.2735776,16.9583744 C29.3705084,16.8752908 29.4812865,16.8129782 29.5989882,16.7714364 C29.7859262,16.722971 29.9797878,16.7160474 30.1736494,16.7645128 C30.312122,16.7991309 30.4575182,16.8129782 30.6029144,16.8129782 C30.6790744,16.8129782 30.7483107,16.7991309 30.817547,16.77836 C30.8867833,16.7506655 30.9490959,16.7091237 30.9906377,16.6537347 C31.0529504,16.5775748 31.0806449,16.4875676 31.0806449,16.3906368 C31.0806449,16.293706 31.0529504,16.2036988 31.004485,16.1206152 C30.9006305,15.9613718 30.741387,15.8367464 30.5682963,15.7675101 C30.3259693,15.6705793 30.0767186,15.5944194 29.8205443,15.545954 C29.0381742,15.359016 28.276575,15.0820708 27.5565175,14.7220421 C27.1964888,14.5420277 26.857231,14.3481661 26.4972022,14.1612281 C26.1371735,13.9604429 25.7632975,13.7873521 25.3755743,13.6627268 C24.4824261,13.4203998 23.5338889,13.4619416 22.6684352,13.7873521 C21.6991271,14.12661 20.8336734,14.7151185 20.169005,15.4974886" id="路径" fill="#F5BD0C"></path>
            <path d="M24.6832114,14.5038494 C24.7316768,14.7539192 24.9809274,14.7104288 25.1263236,14.8191549 C25.2717198,14.9278809 25.3548034,15.1344604 25.493276,15.1562056 C25.6386722,15.1779508 25.8394575,15.0800973 25.8602283,14.8735179 C25.8879229,14.5908302 25.6248249,14.4168685 25.4586578,14.3190151 C25.2371017,14.155926 24.987851,14.1450534 24.7662949,14.2972699 C24.7178295,14.3298877 24.6693641,14.4277411 24.6832114,14.5038494 L24.6832114,14.5038494 Z M22.3014829,14.3733781 C22.1145449,14.2755247 21.8099052,14.786537 21.8999124,15.0583521 C21.9276069,15.1344604 22.0106904,15.2214412 22.0660795,15.1779508 C22.1214685,15.1344604 22.2253229,14.8409001 22.3153301,14.7430466 C22.3845664,14.6560658 22.3707192,14.4059959 22.3014829,14.3733781 L22.3014829,14.3733781 Z" id="形状" fill="#CD8907"></path>
            <path d="M51.9761583,52.9958652 C51.8376857,53.3558939 51.6369004,53.6882281 51.3876498,53.9859442 C50.8060649,54.6090708 50.0998547,55.1075721 49.3244082,55.4537536 C48.0089186,56.063033 46.7280472,56.7415486 45.4817939,57.482377 C44.6717293,58.0224201 43.9170537,58.6316994 43.2177671,59.3102151 C42.6431059,59.9125709 42.0269029,60.4664612 41.3760817,60.9857334 C40.697566,61.4842347 39.9151959,61.8234926 39.0843604,61.9550415 C38.0665869,62.0865905 37.0349661,61.927347 36.1002762,61.5050056 C35.4286841,61.2488313 34.8470992,60.7987954 34.4386051,60.2033633 C34.0924236,59.5663894 33.9331802,58.8532556 33.9677983,58.1331981 C34.0093401,56.866174 34.1616599,55.6060734 34.4247578,54.3598201 C34.6047722,53.3212757 34.7847866,52.2827313 34.8955646,51.2372633 C35.0894263,49.3263416 35.1101972,47.4084963 34.9648009,45.4975746 C34.9301828,45.1790876 34.9301828,44.853677 34.9648009,44.5351901 C35.0063427,43.8843689 35.5533094,43.3858676 36.2110542,43.3927912 C36.5087703,43.3858676 36.8064863,43.4135621 37.0972788,43.4689512 C37.7896417,43.5520347 38.4820046,43.6697364 39.1605203,43.8289799 C39.5828617,43.939758 40.0052031,44.0920778 40.4275445,44.2097795 C41.1337547,44.4174884 41.8815067,44.4798011 42.6154114,44.4105648 C43.3839342,44.2305504 44.1663043,44.1128487 44.9555981,44.0436124 C45.2810087,44.0574597 45.6064193,44.1128487 45.9110589,44.2097795 C46.2295459,44.2997867 46.527262,44.4590302 46.769589,44.6875099 C46.9426797,44.8744479 47.0811523,45.0890804 47.1711595,45.3244838 C47.3027084,45.6775889 47.385792,46.0445413 47.4134865,46.4184173 C47.4273338,46.7507515 47.4550283,47.0830857 47.4965701,47.4154199 C47.6142718,47.9485394 47.870446,48.4470407 48.2304748,48.8624584 C48.5974271,49.2640289 48.992074,49.6379049 49.421339,49.9702391 C49.8298332,50.3302679 50.2590982,50.6626021 50.7091341,50.9672418 C50.9237666,51.112638 51.1383991,51.2441869 51.3391844,51.4034304 C51.5468932,51.5557502 51.719984,51.7496119 51.8515329,51.971168 C52.0177,52.2758077 52.0730891,52.6289128 51.9900055,52.9681706" id="路径" fill="#F5BD0C"></path>
            <path d="M51.9761583,52.9958652 C51.8376857,53.3558939 51.6369004,53.6882281 51.3876498,53.9859442 C50.8060649,54.6090708 50.0998547,55.1075721 49.3244082,55.4537536 C48.0089186,56.063033 46.7280472,56.7415486 45.4817939,57.482377 C44.6717293,58.0224201 43.9170537,58.6316994 43.2177671,59.3102151 C42.6431059,59.9125709 42.0269029,60.4664612 41.3760817,60.9857334 C40.697566,61.4842347 39.9151959,61.8234926 39.0843604,61.9550415 C38.0665869,62.0865905 37.0349661,61.927347 36.1002762,61.5050056 C35.4286841,61.2488313 34.8470992,60.7987954 34.4386051,60.2033633 C34.0924236,59.5663894 33.9331802,58.8532556 33.9677983,58.1331981 C34.0093401,56.866174 34.1616599,55.6060734 34.4247578,54.3598201 C34.6047722,53.3212757 34.7847866,52.2827313 34.8955646,51.2372633 C35.0894263,49.3263416 35.1101972,47.4084963 34.9648009,45.4975746 C34.9301828,45.1790876 34.9301828,44.853677 34.9648009,44.5351901 C35.0063427,43.8843689 35.5533094,43.3858676 36.2110542,43.3927912 C36.5087703,43.3858676 36.8064863,43.4135621 37.0972788,43.4689512 C37.7896417,43.5520347 38.4820046,43.6697364 39.1605203,43.8289799 C39.5828617,43.939758 40.0052031,44.0920778 40.4275445,44.2097795 C41.1337547,44.4174884 41.8815067,44.4798011 42.6154114,44.4105648 C43.3839342,44.2305504 44.1663043,44.1128487 44.9555981,44.0436124 C45.2810087,44.0574597 45.6064193,44.1128487 45.9110589,44.2097795 C46.2295459,44.2997867 46.527262,44.4590302 46.769589,44.6875099 C46.9426797,44.8744479 47.0811523,45.0890804 47.1711595,45.3244838 C47.3027084,45.6775889 47.385792,46.0445413 47.4134865,46.4184173 C47.4273338,46.7507515 47.4550283,47.0830857 47.4965701,47.4154199 C47.6142718,47.9485394 47.870446,48.4470407 48.2304748,48.8624584 C48.5974271,49.2640289 48.992074,49.6379049 49.421339,49.9702391 C49.8298332,50.3302679 50.2590982,50.6626021 50.7091341,50.9672418 C50.9237666,51.112638 51.1383991,51.2441869 51.3391844,51.4034304 C51.5468932,51.5557502 51.719984,51.7496119 51.8515329,51.971168 C52.0177,52.2758077 52.0730891,52.6289128 51.9900055,52.9681706 M8.47499504,42.3680941 C8.81425288,42.2365451 9.18120524,42.201927 9.54123396,42.2711633 C9.90126269,42.3403996 10.2405205,42.4857958 10.5382366,42.6935047 C11.1128978,43.1296933 11.6113991,43.6697364 12.006046,44.2720922 C12.9822778,45.6152763 13.9169677,46.9861549 14.7685741,48.4124225 C15.4609371,49.5686686 16.0909873,50.7595329 16.8872047,51.8465427 C17.4064769,52.5527529 17.9949854,53.2104977 18.5211812,53.9167079 C19.0681479,54.6090708 19.4835657,55.3983645 19.73974,56.2361237 C20.0443797,57.350828 19.9197544,58.5347686 19.4004822,59.5663894 C19.0266062,60.2864469 18.4657922,60.8888026 17.7803529,61.3042204 C17.08799,61.7196381 16.2917726,61.927347 15.4817079,61.9065761 C14.2077601,61.7334854 12.9753541,61.3457622 11.8398789,60.7572537 C9.42353226,59.7948692 6.79947674,59.4902295 4.30697017,58.7424775 C3.53844732,58.5139977 2.79069535,58.2370526 2.01524886,58.0293437 C1.66906739,57.9462601 1.32980955,57.8424057 0.997475344,57.7039331 C0.672064765,57.5654605 0.388195962,57.3300571 0.201257969,57.0323411 C0.062785382,56.790014 -0.00645091146,56.5130689 0.000472717889,56.2361237 C0.00739634724,55.9591785 0.062785382,55.689157 0.159716193,55.4399063 C0.346654185,54.9206341 0.651293877,54.4567509 0.852079128,53.9444024 C1.15671882,53.0997196 1.27442052,52.1927241 1.1982606,51.299576 C1.15671882,50.4064278 0.997475344,49.5132796 0.949009939,48.6201314 C0.907468163,48.2185609 0.921315422,47.8169904 0.990551715,47.4223435 C1.09440616,46.6330498 1.71060917,46.0029995 2.50682654,45.8852978 C2.8737789,45.8229851 3.24073125,45.7952906 3.60768361,45.8160615 C3.97463597,45.8368324 4.34851195,45.8368324 4.71546431,45.8160615 C5.08241666,45.7952906 5.44936902,45.6914362 5.7747796,45.5183455 C6.07249566,45.3383311 6.33559357,45.0890804 6.53637883,44.798288 C6.73716408,44.5074956 6.91717844,44.2097795 7.08334554,43.8982162 C7.24951265,43.5866529 7.43645064,43.2958604 7.65800678,43.0189153 C7.86571566,42.7350465 8.14958446,42.5204139 8.47499504,42.3680941" id="形状" fill="#F5BD0C"></path>
            <path d="M8.47499504,42.3750177 C8.81425288,42.2434688 9.18120524,42.2088506 9.54123396,42.2780869 C9.90126269,42.3473232 10.2405205,42.4927194 10.5382366,42.7004283 C11.1128978,43.136617 11.6113991,43.67666 12.006046,44.2790158 C12.9822778,45.6221999 13.9169677,46.9930785 14.7685741,48.4193462 C15.4609371,49.5755923 16.0909873,50.7664565 16.8872047,51.8534663 C17.4064769,52.5596765 17.9949854,53.2174213 18.5211812,53.9236315 C19.0681479,54.6159944 19.4835657,55.4052882 19.73974,56.2430473 C20.0443797,57.3577516 19.9197544,58.5416923 19.4004822,59.573313 C19.0266062,60.2933705 18.4657922,60.8957262 17.7803529,61.311144 C17.08799,61.7265618 16.2917726,61.9342706 15.4817079,61.9134998 C14.2077601,61.740409 12.9753541,61.3526858 11.8398789,60.7641773 C9.42353226,59.8017928 6.79947674,59.4971531 4.30697017,58.7494011 C3.53844732,58.5209214 2.79069535,58.2439762 2.01524886,58.0362673 C1.66906739,57.9531838 1.32980955,57.8493293 0.997475344,57.7108567 C0.672064765,57.5723842 0.388195962,57.3369808 0.201257969,57.0392647 C0.062785382,56.7969377 -0.00645091146,56.5199925 0.000472717889,56.2430473 C0.00739634724,55.9661021 0.062785382,55.6960806 0.159716193,55.4468299 C0.346654185,54.9275577 0.651293877,54.4636746 0.852079128,53.951326 C1.15671882,53.1066432 1.27442052,52.1996478 1.1982606,51.3064996 C1.15671882,50.4133514 0.997475344,49.5271268 0.949009939,48.627055 C0.907468163,48.2254845 0.921315422,47.823914 0.990551715,47.4292672 C1.09440616,46.6399734 1.71060917,46.0099231 2.50682654,45.8922214 C2.8737789,45.8299088 3.24073125,45.8022143 3.60768361,45.8229851 C3.97463597,45.843756 4.34851195,45.843756 4.71546431,45.8229851 C5.08241666,45.8022143 5.44936902,45.6983598 5.7747796,45.5252691 C6.07249566,45.3452547 6.33559357,45.0960041 6.53637883,44.8052116 C6.73716408,44.5144192 6.91717844,44.2167031 7.08334554,43.9051398 C7.24951265,43.5935765 7.43645064,43.3027841 7.65800678,43.0258389 C7.86571566,42.7419701 8.14958446,42.5204139 8.47499504,42.3750177" id="路径" fill="#F5BD0C"></path>
            <path d="M9.0081145,42.9566026 C9.31275419,42.8389009 9.65201203,42.81813 9.97049898,42.8942899 C10.2889859,42.9704499 10.586702,43.1158461 10.8428763,43.323555 C11.334454,43.75282 11.7498717,44.2651685 12.061435,44.8398298 C12.8922706,46.1830139 13.7023352,47.5400452 14.4570108,48.9247711 C15.0039775,49.9840864 15.6201805,51.0087835 16.2986962,51.9850153 C16.769503,52.6219892 17.3095461,53.203574 17.7942001,53.8267007 C18.2996251,54.4429037 18.6804247,55.1421903 18.9158281,55.8968659 C19.1927733,56.8869448 19.0750716,57.9462601 18.6042648,58.8671028 C18.2580833,59.517924 17.7388111,60.0648907 17.1018372,60.4318431 C16.4648633,60.8057191 15.7309586,60.9857334 14.9970539,60.9511153 C13.8408078,60.7711009 12.7191798,60.4249194 11.6598645,59.9194945 C9.55508122,59.1509716 7.26335991,59.0540408 5.10318755,58.4516851 C4.32774106,58.2439762 3.57306546,57.9601074 2.79069535,57.7662458 C2.44451388,57.6900859 2.09833241,57.593155 1.7659982,57.4685297 C1.43366399,57.3439044 1.14287156,57.108501 0.949009939,56.8107849 C0.824384611,56.5753815 0.762071946,56.3122836 0.775919205,56.0491857 C0.789766464,55.7860878 0.845155499,55.5229899 0.94208631,55.2737392 C1.1290243,54.7821615 1.42674036,54.3321256 1.61367836,53.8405479 C1.87677627,53.0789487 1.96678345,52.2758077 1.8836999,51.4726667 C1.82831087,50.6764493 1.68291465,49.8871556 1.64137287,49.0840146 C1.61367836,48.7309095 1.62752562,48.3708807 1.68983828,48.0177757 C1.75215094,47.6646706 1.91831805,47.33926 2.1675687,47.0761621 C2.45836114,46.8130641 2.81838986,46.6399734 3.20611311,46.591508 C3.59383635,46.5430426 3.98155959,46.5430426 4.36235921,46.591508 C4.75008245,46.6399734 5.1378057,46.6538207 5.52552894,46.646897 C6.28712817,46.646897 6.9794911,46.2037848 7.30490168,45.5114218 C7.46414516,45.1998585 7.60261775,44.8744479 7.71339581,44.5490373 C7.83109751,44.2167031 7.99034099,43.9051398 8.17727898,43.6074238 C8.3711406,43.3097077 8.64808578,43.0743043 8.97349636,42.9358317" id="路径" fill="#F5BD0C"></path>
        </g>
    </g>
</svg>