<svg xmlns="http://www.w3.org/2000/svg" viewBox="0 0 12 14" class="design-iconfont">
  <path d="M11.4545455,6 L10.2954545,6 L10.2954545,2.24 C10.2954545,1.00275 9.31875,0 8.11363636,0 L3.88636364,0 C2.68125,0 1.70454545,1.00275 1.70454545,2.24 L1.70454545,6 L0.545454545,6 C0.24375,6 0,6.25025 0,6.56 L0,13.44 C0,13.74975 0.24375,14 0.545454545,14 L11.4545455,14 C11.75625,14 12,13.74975 12,13.44 L12,6.56 C12,6.25025 11.75625,6 11.4545455,6 Z M9.06818182,6 L2.93181818,6 L2.93181818,2.24 C2.93181818,1.69925 3.35965909,1.26 3.88636364,1.26 L8.11363636,1.26 C8.64034091,1.26 9.06818182,1.69925 9.06818182,2.24 L9.06818182,6 Z" fill="#4D4F56" fill-rule="evenodd"/>
</svg>
