<svg width="52" height="52" viewBox="0 0 52 52" fill="none" xmlns="http://www.w3.org/2000/svg">
<path d="M22.75 5.24962C22.75 5.67645 22.834 6.09911 22.9973 6.49346C23.1606 6.88781 23.4 7.24613 23.7018 7.54796C24.0036 7.84979 24.3619 8.08922 24.7562 8.25257C25.1505 8.41592 25.5732 8.5 26 8.5C26.4268 8.5 26.8495 8.41592 27.2438 8.25257C27.6381 8.08922 27.9964 7.84979 28.2982 7.54796C28.6 7.24613 28.8394 6.88781 29.0027 6.49346C29.166 6.09911 29.2501 5.67645 29.25 5.24962C29.2499 4.38773 28.9074 3.56118 28.298 2.95177C27.6885 2.34236 26.8619 2 26 2C25.1381 2 24.3115 2.34236 23.702 2.95177C23.0926 3.56118 22.7501 4.38773 22.75 5.24962Z" fill="#699DF4"/>
<path d="M38.3197 5.25H30.7712C30.7712 7.88387 28.615 10.0389 25.9796 10.0389C23.3442 10.0389 21.1879 7.88387 21.1879 5.25H13.6427C9.09059 5.25 5.41699 8.92146 5.41699 13.4709V41.4458C5.41699 45.9952 9.09059 49.6667 13.6427 49.6667H38.358C42.9101 49.6667 46.5837 45.9952 46.5837 41.4458V13.4709C46.5837 8.92146 42.8701 5.25 38.3181 5.25H38.3197ZM34.7259 28.6356H27.1391V36.218C27.1236 36.5144 26.9948 36.7935 26.7793 36.9978C26.5639 37.2022 26.2782 37.3161 25.9812 37.3161C25.6842 37.3161 25.3985 37.2022 25.183 36.9978C24.9676 36.7935 24.8388 36.5144 24.8232 36.218V28.6356H17.2364C16.9398 28.62 16.6605 28.4913 16.4561 28.276C16.2516 28.0606 16.1377 27.7751 16.1377 27.4783C16.1377 27.1815 16.2516 26.8959 16.4561 26.6806C16.6605 26.4653 16.9398 26.3366 17.2364 26.321H24.8232V18.7386C24.8388 18.4422 24.9676 18.163 25.183 17.9587C25.3985 17.7544 25.6842 17.6405 25.9812 17.6405C26.2782 17.6405 26.5639 17.7544 26.7793 17.9587C26.9948 18.163 27.1236 18.4422 27.1391 18.7386V26.321H34.7259C35.0225 26.3366 35.3018 26.4653 35.5063 26.6806C35.7107 26.8959 35.8247 27.1815 35.8247 27.4783C35.8247 27.7751 35.7107 28.0606 35.5063 28.276C35.3018 28.4913 35.0225 28.62 34.7259 28.6356Z" fill="#A3C5FD"/>
</svg>
