<svg xmlns="http://www.w3.org/2000/svg" viewBox="0 0 68 50" class="design-iconfont">
  <defs>
    <linearGradient x1="47.8451289%" y1="47.900927%" x2="51.5065753%" y2="51.5682534%" id="tlv56krhs__ukjurw6vsa">
      <stop stop-color="#EDEFF3" stop-opacity=".4" offset="0%"/>
      <stop stop-color="#E7EAEF" offset="100%"/>
    </linearGradient>
    <linearGradient x1="49.9972159%" y1="1.17059325%" x2="49.9972159%" y2="94.8038437%" id="tlv56krhs__qdh9mafi5b">
      <stop stop-color="#E6E8EB" stop-opacity=".9917" offset="0%"/>
      <stop stop-color="#D4D6D9" offset="100%"/>
    </linearGradient>
    <linearGradient x1="49.9972159%" y1=".00113636%" x2="49.9972159%" y2="99.2111364%" id="tlv56krhs__v0agnuklkc">
      <stop stop-color="#E7EAEE" offset="0%"/>
      <stop stop-color="#E2E5E9" offset="100%"/>
    </linearGradient>
    <linearGradient x1="49.9972159%" y1="1.17059325%" x2="49.9972159%" y2="94.8038437%" id="tlv56krhs__j3mrb22bed">
      <stop stop-color="#E6E8EB" stop-opacity=".9917" offset="0%"/>
      <stop stop-color="#CCCED1" offset="100%"/>
    </linearGradient>
    <linearGradient x1="49.9972159%" y1="1.4020377%" x2="49.9972159%" y2="97.2233564%" id="tlv56krhs__1b1oflvwfe">
      <stop stop-color="#E1E3E6" offset="0%"/>
      <stop stop-color="#F5F7FA" offset="100%"/>
    </linearGradient>
  </defs>
  <g fill-rule="nonzero" fill="none" opacity=".8">
    <path d="M10.2513322,39.9394543 C17.0477458,38.3979735 26.8045604,37.7313872 33.4341909,38.0646804 C40.0638213,38.3979735 45.5676655,39.5644995 45.9429276,39.272868 C47.2771928,38.3979735 50.1125065,38.0230187 49.9457233,38.3563119 C49.820636,38.689605 47.9860213,39.7728077 48.5697623,39.9394543 C49.1535033,40.1061009 55.0743054,40.7726871 57.5343569,41.3142885 C59.9944085,41.8142282 61.5788485,42.3141679 62.1208937,42.3141679 C62.662939,42.3141679 63.4968548,41.60592 67.0409969,41.9392131 C67.1243884,42.0641981 66.2487769,42.1058597 65.4565569,42.5224761 C64.6643369,42.9390926 64.0805958,42.8974309 64.0805958,42.9807542 C64.0805958,43.0640775 64.5392495,42.8557693 65.4565569,43.4390323 C66.3738642,44.0222953 68,44.2306035 68,44.3555884 C68,44.4805733 65.9569063,45.1888212 62.4961558,44.1056185 C61.6205443,43.813987 59.5774506,46.2303623 50.1958981,46.8969486 C40.8143455,47.5635349 24.9699457,48.1051362 24.9699457,48.1051362 C24.9699457,48.1051362 25.9289488,49.3133238 27.3049099,49.6882786 C27.3883015,49.8132636 26.7628646,50.2715416 24.0526383,49.7716019 C21.3424121,49.2716622 19.9247552,48.1467979 19.9247552,48.1467979 C19.9247552,48.1467979 14.5876942,47.8135047 12.5862964,47.4802116 C10.5848985,47.1469184 8.24993429,46.2720239 6.66549431,46.1053774 C5.08105432,45.9387308 -2.13231718,45.105498 0.619604893,43.230724 C0.536213315,43.1890624 3.45491855,41.4809351 10.2513322,39.9394543 Z" fill="url(#tlv56krhs__ukjurw6vsa)"/>
    <path fill="url(#tlv56krhs__qdh9mafi5b)" d="M9.98601399 28.0101448L19.8274793 12.9807692 44.3683249 12.9807692 54.2097902 28.0101448 54.2097902 37.0192308 9.98601399 37.0192308z"/>
    <path d="M20.6231723,43.2692308 L10.8235855,43.2692308 C10.3629212,43.2692308 9.98601399,42.8881665 9.98601399,42.4224213 L9.98601399,28.3653846 L19.7856008,28.3653846 C20.2462651,28.3653846 20.6231723,28.7464489 20.6231723,29.2121941 L20.6231723,32.345389 C20.6231723,32.8111342 20.9582009,33.149858 21.4188652,33.1921984 L21.4607438,33.1921984 L42.7350604,33.1921984 C43.1957247,33.1921984 43.5307533,32.8534747 43.5726319,32.3877295 L43.5726319,32.345389 L43.5726319,29.2121941 C43.5726319,28.7464489 43.9495391,28.3653846 44.4102034,28.3653846 L54.2097902,28.3653846 L54.2097902,42.4224213 C54.2097902,42.8881665 53.832883,43.2692308 53.3722187,43.2692308 L43.5726319,43.2692308 L20.6231723,43.2692308 Z" fill="url(#tlv56krhs__v0agnuklkc)"/>
    <path fill="#C4C6CC" d="M8.24242424 41.8269231L8.24242424 45.0320513 11.4125874 45.0320513 11.4125874 45.6730769 7.60839161 45.6730769 7.60839161 41.8269231z"/>
    <path fill="#C4C6CC" d="M52.7832168 45.0320513L55.95338 45.0320513 55.95338 41.8269231 56.5874126 41.8269231 56.5874126 45.6730769 52.7832168 45.6730769z"/>
    <g fill="#C4C6CC">
      <path transform="rotate(111 19.42879162 18.65439753)" d="M0.00646162964 0.64304878L1.36213566 0.643048886 1.36213571 1.31110278 0.00646168296 1.31110268z"/>
      <path transform="rotate(111 19.00481585 20.94176832)" d="M0.00641987618 3.35436925L1.36209391 3.35436936 1.36209396 4.02242325 0.0064199295 4.02242315z"/>
      <path transform="rotate(111 18.58090423 23.22918852)" d="M0.00646162955 6.06573208L1.36213566 6.06573219 1.36213571 6.73378609 0.00646168287 6.73378598z"/>
      <path transform="rotate(111 18.15695717 25.51660215)" d="M0.00646162963 8.77709492L1.36213566 8.77709502 1.36213571 9.44514892 0.00646168295 9.44514882z"/>
    </g>
    <g fill="#C4C6CC">
      <path transform="rotate(148 4.53144618 9.1047909)" d="M0.323345294 0.0611333512L0.991399191 0.0611332981 0.991399085 1.41680733 0.323345188 1.41680738z"/>
      <path transform="rotate(148 5.30898231 11.81612122)" d="M0.3234143 2.77248141L0.991468198 2.77248136 0.991468091 4.12815538 0.323414194 4.12815544z"/>
      <path transform="rotate(148 6.08644778 14.52751834)" d="M0.3233998 5.48387183L0.991453697 5.48387178 0.991453591 6.83954581 0.323399694 6.83954586z"/>
      <path transform="rotate(148 6.86388758 17.23882975)" d="M0.3233853 8.19517752L0.991439197 8.19517747 0.991439091 9.5508515 0.323385193 9.55085155z"/>
      <path transform="rotate(148 7.641341 19.95018488)" d="M0.323370799 10.9065256L0.991424697 10.9065255 0.99142459 12.2621996 0.323370693 12.2621996z"/>
    </g>
    <path fill="#C4C6CC" d="M47.7902098 13.6634615A1 1 0 1 0 47.7902098 15.6634615A1 1 0 1 0 47.7902098 13.6634615Z"/>
    <path fill="#C4C6CC" d="M26.8671329 19.9134615A1 1 0 1 0 26.8671329 21.9134615A1 1 0 1 0 26.8671329 19.9134615Z"/>
    <path d="M35.0909091,2.88461538 C36.1954786,2.88461538 37.0909091,3.78004588 37.0909091,4.88461538 L37.0909091,19.6346154 C37.0909091,19.8282221 37.0633993,20.0154035 37.0120755,20.1924641 L39.7015489,20.1923077 C40.2538336,20.1923077 40.7015489,20.6400229 40.7015489,21.1923077 C40.7015489,21.4770559 40.580158,21.7483001 40.367818,21.9380191 L32.7641712,28.731633 C32.3846931,29.0706845 31.8111111,29.0706845 31.431633,28.731633 L23.8279862,21.9380191 C23.4161412,21.5700488 23.3805737,20.9378836 23.7485439,20.5260386 C23.9382629,20.3136986 24.2095071,20.1923077 24.4942553,20.1923077 L27.6592532,20.1924641 C27.6079293,20.0154035 27.5804196,19.8282221 27.5804196,19.6346154 L27.5804196,4.88461538 C27.5804196,3.78004588 28.4758501,2.88461538 29.5804196,2.88461538 L35.0909091,2.88461538 Z" fill="url(#tlv56krhs__j3mrb22bed)"/>
    <path d="M35.0909091,0 C36.1954786,-2.02906125e-16 37.0909091,0.8954305 37.0909091,2 L37.0909091,16.75 C37.0909091,16.9436067 37.0633993,17.1307881 37.0120755,17.3078487 L39.7015489,17.3076923 C40.2538336,17.3076923 40.7015489,17.7554076 40.7015489,18.3076923 C40.7015489,18.5924405 40.580158,18.8636847 40.367818,19.0534037 L32.7641712,25.8470176 C32.3846931,26.1860692 31.8111111,26.1860692 31.431633,25.8470176 L23.8279862,19.0534037 C23.4161412,18.6854334 23.3805737,18.0532682 23.7485439,17.6414232 C23.9382629,17.4290832 24.2095071,17.3076923 24.4942553,17.3076923 L27.6592532,17.3078487 C27.6079293,17.1307881 27.5804196,16.9436067 27.5804196,16.75 L27.5804196,2 C27.5804196,0.8954305 28.4758501,6.46995335e-16 29.5804196,0 L35.0909091,0 Z" fill="url(#tlv56krhs__1b1oflvwfe)"/>
  </g>
</svg>
