<svg viewBox="0 0 1024 1024" version="1.1" xmlns="http://www.w3.org/2000/svg" style="fill: #BDBFC4;"><path fill-rule="evenodd" d="M525.385168 72.69518528L654.5601152 350.9411136 947.7436992 395.8662368C959.3549312 397.3154336 963.7091424 411.8074112 956.4521248 420.5025952L744.5471552 637.8822272 795.3462912 943.6629088C796.797696 955.2564896 785.186464 963.9516736 773.5752352 958.1548832L512.3225344 814.6843264 251.06983456 958.1548832C240.91000704 963.9516736 227.84737216 955.2564896 229.298776 943.6629088L280.09791232 637.8822272 68.19294464 420.5025952C59.48452128 411.8074112 65.29013664 397.3154336 76.901368 395.8662368L368.6335488 350.9411136 499.2599008 72.69518528C505.0655136 61.1016048 521.0309568 61.1016048 525.385168 72.69518528ZM610.9563104 409.0066144L512.064 196 412.0761664 409.0056032 181.024 444.544 348.5424416 616.4087488 309.152 853.216 512.3225344 741.6687392 715.424 853.216 676.1026272 616.4087488 843.52 444.608 610.9563104 409.0066144Z"></path></svg>