<svg width="16" height="16" viewBox="0 0 16 16" fill="none" xmlns="http://www.w3.org/2000/svg">
<path fill-rule="evenodd" clip-rule="evenodd" d="M8.85714 1C9.48833 1 10 1.44772 10 2V3.5H14C14.5523 3.5 15 3.94772 15 4.5V6C15 6.55228 14.5523 7 14 7H13.9091V12.1946L14.246 13.7939C14.3598 14.3343 14.014 14.8647 13.4735 14.9785C13.4058 14.9928 13.3367 15 13.2674 15H2.73848C2.1862 15 1.73848 14.5523 1.73848 14C1.73848 13.9292 1.74601 13.8586 1.76093 13.7893L2.09091 12.2582V7H2C1.44772 7 1 6.55228 1 6V4.5C1 3.94772 1.44772 3.5 2 3.5H6V2C6 1.44772 6.51167 1 7.14286 1H8.85714ZM12.9091 7H3.09091V12.3648L3.06846 12.4689L2.73848 14H5V11C5 10.7239 5.22386 10.5 5.5 10.5C5.77614 10.5 6 10.7239 6 11V14H7.5V11C7.5 10.7239 7.72386 10.5 8 10.5C8.27614 10.5 8.5 10.7239 8.5 11V14H10V11C10 10.7239 10.2239 10.5 10.5 10.5C10.7761 10.5 11 10.7239 11 11V14H13.2674L12.9306 12.4007L12.9091 12.2987V7ZM14 4.5H2V6H14V4.5ZM8.85714 2H7.14286V3.5H8.85714V2Z" fill="#979BA5"/>
</svg>
