<svg width="9" height="11" viewBox="0 0 9 11" fill="none" xmlns="http://www.w3.org/2000/svg">
<path d="M4.57155 10.548C3.63218 10.548 2.76994 10.2548 2.21479 9.81689C1.93287 9.89543 1.57224 10.0218 1.34465 10.1786C1.14992 10.3126 1.17419 10.4494 1.2093 10.5046C1.3634 10.747 3.85285 10.6594 4.57155 10.5839V10.548Z" fill="#FAAD08"/>
<path d="M4.4021 10.548C5.34145 10.548 6.20372 10.2548 6.75887 9.81689C7.04079 9.89543 7.40141 10.0218 7.62902 10.1786C7.82374 10.3126 7.79945 10.4494 7.76437 10.5046C7.61027 10.747 5.12081 10.6594 4.4021 10.5839V10.548Z" fill="#FAAD08"/>
<path d="M4.40775 4.89096C5.95385 4.8807 7.19293 4.58882 7.61279 4.47682C7.71288 4.4501 7.76643 4.40224 7.76643 4.40224C7.76678 4.38851 7.77278 4.15671 7.77278 4.03714C7.77278 2.02349 6.79834 0.000128906 4.40203 0C2.00573 0.000128906 1.03125 2.02348 1.03125 4.03714C1.03125 4.15671 1.0373 4.38851 1.03766 4.40224C1.03766 4.40224 1.08122 4.44702 1.16105 4.46869C1.54868 4.57392 2.81108 4.88047 4.39636 4.89096H4.40775Z" fill="black"/>
<path d="M8.66344 6.59322C8.56829 6.28753 8.4384 5.93104 8.30688 5.58869C8.30688 5.58869 8.23122 5.57938 8.193 5.59043C7.0128 5.93267 5.58237 6.15079 4.49231 6.13763H4.48103C3.39707 6.15067 1.97635 5.93504 0.800128 5.59615C0.755187 5.58322 0.666452 5.5887 0.666452 5.5887C0.534933 5.93104 0.405054 6.28753 0.30991 6.59322C-0.143817 8.05087 0.00317122 8.65411 0.115109 8.66763C0.355296 8.69662 1.05003 7.57032 1.05003 7.57032C1.05003 8.71477 2.08508 10.4721 4.45522 10.4882C4.47618 10.4882 4.49715 10.4882 4.51811 10.4882C6.88828 10.4721 7.92329 8.71479 7.92329 7.57033C7.92329 7.57033 8.61802 8.69663 8.85825 8.66764C8.97016 8.65412 9.11715 8.05088 8.66344 6.59322Z" fill="black"/>
<path d="M3.67241 3.04403C3.34545 3.05856 3.06602 2.69122 3.0485 2.22423C3.03071 1.75692 3.28121 1.36634 3.60823 1.35172C3.93489 1.33738 4.21413 1.70456 4.23188 2.17173C4.24978 2.63904 3.99923 3.02955 3.67241 3.04403ZM6.09432 2.22423C6.07681 2.69122 5.79737 3.05854 5.47041 3.04403C5.1436 3.02952 4.89304 2.63904 4.91094 2.17174C4.92867 1.70454 5.2079 1.33736 5.53456 1.35174C5.86162 1.36635 6.11211 1.75692 6.09432 2.22423Z" fill="white"/>
<path d="M6.59706 3.65C6.51124 3.44364 5.64712 3.21375 4.5773 3.21375H4.56581C3.49601 3.21375 2.63186 3.44364 2.54606 3.65C2.54197 3.65925 2.53979 3.66924 2.53979 3.67935C2.53979 3.69423 2.5444 3.70764 2.55158 3.71903C2.62387 3.83347 3.58347 4.39893 4.56583 4.39893H4.57731C5.55966 4.39893 6.51922 3.8335 6.59154 3.71906C6.59915 3.70718 6.60322 3.69338 6.60328 3.67927C6.60328 3.66876 6.60094 3.65893 6.59706 3.65Z" fill="#FAAD08"/>
<path d="M4.06216 2.33457C4.07693 2.52073 3.97571 2.68613 3.83639 2.7042C3.69685 2.72229 3.57191 2.58604 3.55706 2.39977C3.54249 2.2135 3.64356 2.04812 3.78265 2.03019C3.92242 2.01203 4.04757 2.1484 4.06216 2.33457ZM4.91877 2.42756C4.94845 2.3793 5.15111 2.12556 5.57056 2.21796C5.68073 2.24221 5.7317 2.27791 5.74245 2.29197C5.75833 2.31271 5.76268 2.34224 5.74658 2.38202C5.71468 2.46083 5.64887 2.45868 5.61235 2.44326C5.5888 2.4333 5.29665 2.25706 5.02753 2.52005C5.00903 2.53816 4.97591 2.54436 4.9445 2.52289C4.91312 2.5014 4.90013 2.45781 4.91877 2.42756Z" fill="black"/>
<path d="M4.49226 6.17969H4.48093C3.73599 6.1885 2.83273 6.09175 1.95805 5.92281C1.88315 6.34776 1.83793 6.88185 1.87677 7.51886C1.97485 9.12883 2.95044 10.1408 4.45627 10.1555H4.51748C6.02332 10.1408 6.9989 9.12883 7.09701 7.51886C7.13585 6.8818 7.0906 6.34771 7.01568 5.92273C6.14083 6.09175 5.23742 6.18856 4.49226 6.17969Z" fill="white"/>
<path d="M2.37036 6.09204V7.70299C2.37036 7.70299 3.13158 7.85188 3.89416 7.74881V6.26283C3.41106 6.23632 2.89001 6.17724 2.37036 6.09204Z" fill="#EB1C26"/>
<path d="M7.81752 4.39893C7.81752 4.39893 6.38806 4.87221 4.4924 4.88571H4.48113C2.58859 4.87227 1.16088 4.40054 1.156 4.39893L0.677246 5.65227C1.87474 6.0309 3.35893 6.27495 4.48113 6.26078L4.49238 6.26075C5.61466 6.275 7.09863 6.03095 8.29629 5.65227L7.81752 4.39893Z" fill="#EB1C26"/>
</svg>
