<svg width="20" height="17" viewBox="0 0 20 17" fill="none" xmlns="http://www.w3.org/2000/svg">
<path d="M13.4117 13.4106C13.3562 13.4656 13.3278 13.5423 13.3342 13.6201C13.3406 13.6979 13.3811 13.769 13.4448 13.8142C14.0198 14.3519 14.39 15.0722 14.492 15.8521C14.6388 16.3901 15.1643 16.7346 15.7172 16.6553C16.2701 16.5761 16.6772 16.0979 16.6664 15.5404C16.6557 14.9828 16.2305 14.5206 15.675 14.4626C14.9474 14.3268 14.2841 13.9574 13.7862 13.4106C13.6827 13.3075 13.5152 13.3075 13.4117 13.4106Z" fill="#FB6500"/>
<path d="M18.112 11.3254C17.9332 11.5039 17.8213 11.7385 17.7949 11.9899C17.6609 12.7167 17.2933 13.3796 16.7481 13.8778C16.6749 13.948 16.6483 14.054 16.6796 14.1505C16.7109 14.2471 16.7946 14.3171 16.8951 14.3309C16.9955 14.3446 17.095 14.2996 17.151 14.215C17.6875 13.6411 18.4066 13.2718 19.1852 13.1703C19.6327 13.049 19.9568 12.6604 19.996 12.1978C20.0353 11.7353 19.7814 11.2975 19.3607 11.1024C18.94 10.9072 18.4423 10.9963 18.1153 11.3254H18.112Z" fill="#0082EF"/>
<path d="M14.6561 8.32357C14.3556 8.62475 14.2547 9.07165 14.3967 9.4727C14.5386 9.87374 14.8982 10.1577 15.3212 10.2029C16.0486 10.3371 16.7121 10.7055 17.2107 11.2517C17.281 11.3251 17.387 11.3518 17.4837 11.3204C17.5803 11.289 17.6504 11.2051 17.6642 11.1045C17.678 11.0038 17.6329 10.9042 17.5483 10.8481C16.9741 10.3103 16.6044 9.58993 16.5026 8.80994C16.3976 8.43114 16.0992 8.13662 15.7191 8.03648C15.3389 7.93635 14.9341 8.04566 14.6561 8.32357Z" fill="#2DBC00"/>
<path d="M14.2269 10.0678L14.2071 10.0876C13.6701 10.6808 12.9405 11.0636 12.1484 11.1678C11.768 11.2683 11.4707 11.5659 11.3699 11.9472C11.269 12.3285 11.3802 12.7348 11.6609 13.0111C11.9607 13.3111 12.4057 13.4118 12.8049 13.2701C13.2042 13.1284 13.4869 12.7694 13.5318 12.3471C13.6666 11.6207 14.0345 10.9583 14.5793 10.4609C14.6875 10.3633 14.6964 10.1961 14.5991 10.0876C14.5017 9.97904 14.3351 9.97017 14.2269 10.0678Z" fill="#FFCC00"/>
<path d="M7.284 0.0555055C5.20367 0.283927 3.31783 1.16993 1.96336 2.5543C1.42504 3.10113 0.987445 3.71718 0.664456 4.37476C-0.361279 6.43227 -0.189882 8.88175 1.11247 10.7775C1.48061 11.3312 2.08491 12.0234 2.63712 12.5149L2.38707 14.4738L2.35928 14.5568C2.35234 14.5811 2.35234 14.6087 2.34886 14.633L2.34192 14.6953L2.34886 14.7576C2.36754 14.9733 2.49614 15.1644 2.68939 15.2635C2.88263 15.3626 3.11342 15.3558 3.30047 15.2456H3.31088L3.34909 15.2179L3.94644 14.9202L5.72809 14.0273C6.57473 14.2698 7.45194 14.3899 8.33284 14.3838C9.42215 14.3862 10.5035 14.1988 11.528 13.83C11.0139 13.6609 10.6863 13.159 10.7396 12.6222C9.68004 12.9616 8.56009 13.0725 7.45418 12.9475L7.27705 12.9233C6.87776 12.8713 6.48302 12.7892 6.09623 12.6775C5.88539 12.6122 5.6569 12.636 5.46415 12.7433L5.41552 12.7675L3.94992 13.6258L3.8874 13.6639C3.85267 13.6847 3.83531 13.6916 3.81794 13.6916C3.76368 13.6879 3.72217 13.6419 3.72417 13.5878L3.77974 13.3628L3.84573 13.1171L3.94992 12.7122L4.07147 12.2622C4.15249 12.011 4.06293 11.7363 3.8492 11.5804C3.27319 11.1543 2.77307 10.6349 2.3697 10.0438C1.3401 8.55143 1.20189 6.62058 2.00851 4.99772C2.27246 4.47166 2.61976 3.98367 3.05041 3.54413C4.16177 2.40202 5.72462 1.67522 7.45418 1.48833C8.05203 1.42261 8.65533 1.42261 9.25319 1.48833C10.9723 1.68561 12.5282 2.42279 13.6326 3.55797C14.0598 3.99751 14.4071 4.49243 14.6641 5.01849C15.008 5.7176 15.1816 6.45824 15.1816 7.21618C15.1816 7.29579 15.1747 7.37539 15.1712 7.45153C15.6272 7.17169 16.2163 7.24043 16.5951 7.61765L16.6472 7.67995C16.7364 6.54955 16.518 5.41612 16.0151 4.39898C15.686 3.72834 15.2523 3.1139 14.7301 2.57853C13.3086 1.15444 11.4357 0.265295 9.43031 0.0624274C8.7173 -0.0184269 7.99752 -0.0207482 7.284 0.0555055Z" fill="#0082EF"/>
</svg>
