<svg width="64" height="64" viewBox="0 0 64 64" fill="none" xmlns="http://www.w3.org/2000/svg">
<path fill-rule="evenodd" clip-rule="evenodd" d="M32 12C33.106 12 34 11.104 34 10V8C34 6.896 33.106 6 32 6C30.894 6 30 6.896 30 8V10C30 11.104 30.894 12 32 12ZM8 32H6C4.894 32 4 32.896 4 34C4 35.104 4.894 36 6 36H8C9.106 36 10 35.104 10 34C10 32.896 9.106 32 8 32ZM58 32H56C54.894 32 54 32.896 54 34C54 35.104 54.894 36 56 36H58C59.106 36 60 35.104 60 34C60 32.896 59.106 32 58 32ZM32 14C43.044 14 52 22.954 52 34C52 39.54 49.746 44.554 46.106 48.176L42 52.216V54C42 56.208 40.208 58 38 58H26C23.79 58 22 56.208 22 54V52.136L17.952 48.226C14.28 44.6 12 39.568 12 34C12 22.954 20.956 14 32 14ZM26.586 32.586C25.804 33.368 25.804 34.632 26.586 35.414L30 38.828V44C30 45.104 30.894 46 32 46C33.106 46 34 45.104 34 44V38.828L37.414 35.414C38.196 34.632 38.196 33.368 37.414 32.586C36.632 31.804 35.368 31.804 34.586 32.586L32 35.172L29.414 32.586C28.632 31.804 27.368 31.804 26.586 32.586ZM15.0136 14.1848L16.4276 15.5988C17.2096 16.3808 17.2096 17.6468 16.4276 18.4288C15.6456 19.2088 14.3816 19.2088 13.5996 18.4288L12.1856 17.0128C11.4036 16.2328 11.4036 14.9668 12.1856 14.1848C12.9676 13.4048 14.2316 13.4048 15.0136 14.1848ZM49 14.1856C49.782 13.4036 51.046 13.4036 51.828 14.1856C52.61 14.9676 52.61 16.2336 51.828 17.0136L50.414 18.4296C49.632 19.2096 48.368 19.2096 47.586 18.4296C46.804 17.6476 46.804 16.3816 47.586 15.5996L49 14.1856Z" fill="#F0F1F5"/>
</svg>
