<svg width="64" height="64" viewBox="0 0 64 64" fill="none" xmlns="http://www.w3.org/2000/svg">
<path fill-rule="evenodd" clip-rule="evenodd" d="M58 40H54V32C54 30.8954 53.1046 30 52 30H34V24H38C39.1046 24 40 23.1046 40 22V10C40 8.89543 39.1046 8 38 8H26C24.8954 8 24 8.89543 24 10V22C24 23.1046 24.8954 24 26 24H30V30H12C10.8954 30 10 30.8954 10 32V40H6C4.89543 40 4 40.8954 4 42V54C4 55.1046 4.89543 56 6 56H18C19.1046 56 20 55.1046 20 54V42C20 40.8954 19.1046 40 18 40H14V34H30V40H26C24.8954 40 24 40.8954 24 42V54C24 55.1046 24.8954 56 26 56H38C39.1046 56 40 55.1046 40 54V42C40 40.8954 39.1046 40 38 40H34V34H50V40H46C44.8954 40 44 40.8954 44 42V54C44 55.1046 44.8954 56 46 56H58C59.1046 56 60 55.1046 60 54V42C60 40.8954 59.1046 40 58 40Z" fill="#F0F1F5"/>
</svg>
