<svg width="16" height="16" viewBox="0 0 16 16" fill="none" xmlns="http://www.w3.org/2000/svg">
<path fill-rule="evenodd" clip-rule="evenodd" d="M1.78571 1.5H7.21429C7.37143 1.5 7.5 1.62857 7.5 1.78571V7.21429C7.5 7.37143 7.37143 7.5 7.21429 7.5H1.78571C1.62857 7.5 1.5 7.37143 1.5 7.21429V1.78571C1.5 1.62857 1.62857 1.5 1.78571 1.5ZM1.78571 8.5H7.21429C7.37143 8.5 7.5 8.62857 7.5 8.78571V14.2143C7.5 14.3714 7.37143 14.5 7.21429 14.5H1.78571C1.62857 14.5 1.5 14.3714 1.5 14.2143V8.78571C1.5 8.62857 1.62857 8.5 1.78571 8.5ZM8.78571 1.5H14.2143C14.3714 1.5 14.5 1.62857 14.5 1.78571V7.21429C14.5 7.37143 14.3714 7.5 14.2143 7.5H8.78571C8.62857 7.5 8.5 7.37143 8.5 7.21429V1.78571C8.5 1.62857 8.62857 1.5 8.78571 1.5ZM8.78571 8.5H14.2143C14.3714 8.5 14.5 8.62857 14.5 8.78571V14.2143C14.5 14.3714 14.3714 14.5 14.2143 14.5H8.78571C8.62857 14.5 8.5 14.3714 8.5 14.2143V8.78571C8.5 8.62857 8.62857 8.5 8.78571 8.5Z" fill="#A3C5FD"/>
</svg>
