<svg width="13" height="13" viewBox="0 0 13 13" fill="none" xmlns="http://www.w3.org/2000/svg">
<path fill-rule="evenodd" clip-rule="evenodd" d="M6.308 0.118879L8.07406 3.92302L12.0824 4.53723C12.2412 4.55705 12.3007 4.75518 12.2015 4.87406L9.30436 7.84605L9.99888 12.0266C10.0187 12.1851 9.85997 12.304 9.70122 12.2248L6.12941 10.2633L2.5576 12.2248C2.41869 12.304 2.2401 12.1851 2.25994 12.0266L2.95446 7.84605L0.0573254 4.87406C-0.061735 4.75518 0.0176385 4.55705 0.176386 4.53723L4.16491 3.92302L5.95082 0.118879C6.03019 -0.0396265 6.24847 -0.0396265 6.308 0.118879ZM7.47792 4.71689L6.12588 1.80469L4.75885 4.71687L1.59994 5.20275L3.89023 7.55246L3.35169 10.7901L6.12941 9.265L8.90619 10.7901L8.36859 7.55246L10.6575 5.20363L7.47792 4.71689Z" fill="#4D4F56"/>
</svg>
