<svg width="16" height="16" viewBox="0 0 16 16" fill="none" xmlns="http://www.w3.org/2000/svg">
<path fill-rule="evenodd" clip-rule="evenodd" d="M14.5 10H13.5V8C13.5 7.72386 13.2761 7.5 13 7.5H8.5V6H9.5C9.77614 6 10 5.77614 10 5.5V2.5C10 2.22386 9.77614 2 9.5 2H6.5C6.22386 2 6 2.22386 6 2.5V5.5C6 5.77614 6.22386 6 6.5 6H7.5V7.5H3C2.72386 7.5 2.5 7.72386 2.5 8V10H1.5C1.22386 10 1 10.2239 1 10.5V13.5C1 13.7761 1.22386 14 1.5 14H4.5C4.77614 14 5 13.7761 5 13.5V10.5C5 10.2239 4.77614 10 4.5 10H3.5V8.5H7.5V10H6.5C6.22386 10 6 10.2239 6 10.5V13.5C6 13.7761 6.22386 14 6.5 14H9.5C9.77614 14 10 13.7761 10 13.5V10.5C10 10.2239 9.77614 10 9.5 10H8.5V8.5H12.5V10H11.5C11.2239 10 11 10.2239 11 10.5V13.5C11 13.7761 11.2239 14 11.5 14H14.5C14.7761 14 15 13.7761 15 13.5V10.5C15 10.2239 14.7761 10 14.5 10Z" fill="#F8B64F"/>
</svg>
