<svg width="48" height="48" viewBox="0 0 48 48" fill="none" xmlns="http://www.w3.org/2000/svg">
<path d="M24 3C12.4031 3 3 12.4031 3 24C3 35.5969 12.4031 45 24 45C35.5969 45 45 35.5969 45 24C45 12.4031 35.5969 3 24 3Z" fill="#FCE5C0"/>
<path d="M24.1984 15C25.1244 15 25.875 15.6622 25.875 16.4791C25.875 16.5576 25.8681 16.6347 25.8547 16.71L25.3844 26.3287C25.3844 26.9065 24.8534 27.375 24.1984 27.375C23.5434 27.375 23.0124 26.9065 23.0124 26.3287L22.5 16.3887L22.525 16.3875C22.5786 15.6133 23.3073 15 24.1984 15ZM24.1875 33C25.1195 33 25.875 32.2445 25.875 31.3125C25.875 30.3805 25.1195 29.625 24.1875 29.625C23.2555 29.625 22.5 30.3805 22.5 31.3125C22.5 32.2445 23.2555 33 24.1875 33Z" fill="#F59500"/>
</svg>
