<svg width="22" height="20" viewBox="0 0 22 20" fill="none" xmlns="http://www.w3.org/2000/svg">
<path d="M20.7 7.65L11.925 0.45C11.175 -0.15 9.9 -0.15 9.15 0.45L0.3 7.725C1.11759e-07 7.875 -0.075 8.25 0.075 8.55C0.15 8.85 0.45 9 0.75 9H1.5V17.55C1.5 18.675 2.325 19.5 3.45 19.5H8.25C8.7 19.5 9 19.2 9 18.75V15.3C9 14.775 9.825 14.25 10.5 14.25C11.175 14.25 12.075 14.775 12.075 15.3V18.75C12.075 19.2 12.375 19.5 12.825 19.5H17.7C18.825 19.5 19.575 18.75 19.575 17.55V9H20.325C20.625 9 20.925 8.775 21 8.475C21.075 8.175 21 7.875 20.7 7.65Z" fill="#5CDBD3"/>
</svg>
