<svg width="54" height="58" viewBox="0 0 54 58" fill="none" xmlns="http://www.w3.org/2000/svg">
<path d="M12.9824 10.9658V15.9932C12.9826 17.7111 14.3886 19.1169 16.1064 19.1172H37.8213C39.5394 19.1172 40.9451 17.7111 40.9453 15.9932V10.9658H48.8516C51.6824 10.9658 53.999 13.2824 53.999 16.1133V58.4727C53.999 61.3036 51.6826 63.6201 48.8516 63.6201H5.14746C2.3165 63.6201 0 61.3037 0 58.4727V16.1133C0.000142088 13.2824 2.31652 10.9658 5.14746 10.9658H12.9824ZM38.9854 24.4307L42.5625 28.0078L28.0908 42.4795L24.1387 38.5273L20.8789 35.2686L4.85156 51.2959L8.11133 54.5557L20.8789 41.7871L24.8311 45.7393L28.0908 48.998L45.8223 31.2666L49.7422 35.1875V24.4307H38.9854ZM26.9639 0C31.1378 0 34.5894 3.24955 34.9141 7.34375H35.2646C36.5144 7.34375 37.5371 8.36652 37.5371 9.61621V13.1494C37.5371 14.3991 36.5143 15.4219 35.2646 15.4219H18.6641C17.4144 15.4219 16.3916 14.3991 16.3916 13.1494V9.61621C16.3916 8.36652 17.4144 7.34375 18.6641 7.34375H19.0137C19.3383 3.24964 22.7901 0.000187963 26.9639 0ZM23.79 5.74414V10.9658H30.1895V5.74414H23.79Z" fill="#F0F1F5"/>
</svg>
