<svg width="48" height="48" viewBox="0 0 48 48" fill="none" xmlns="http://www.w3.org/2000/svg">
<g clip-path="url(#clip0_1674_7295)">
<path d="M44 0H4C1.79086 0 0 1.79086 0 4V44C0 46.2091 1.79086 48 4 48H44C46.2091 48 48 46.2091 48 44V4C48 1.79086 46.2091 0 44 0Z" fill="#95DCAC"/>
<path d="M24.0004 8.375C29.0398 8.37518 33.1254 12.4605 33.1254 17.5C33.1254 20.8724 31.2942 23.815 28.5736 25.3945C30.5597 26.0812 32.3857 27.2115 33.8998 28.7256C36.5252 31.3511 38.0004 34.912 38.0004 38.625C38.0004 39.1772 37.5525 39.6248 37.0004 39.625C36.4481 39.625 36.0004 39.1773 36.0004 38.625C36.0004 35.4425 34.7361 32.3901 32.4857 30.1396C30.2354 27.8893 27.1828 26.6251 24.0004 26.625C20.8178 26.625 17.7654 27.8893 15.515 30.1396C13.2646 32.3901 12.0004 35.4424 12.0004 38.625C12.0004 39.1772 11.5525 39.6248 11.0004 39.625C10.4481 39.625 10.0004 39.1773 10.0004 38.625C10.0004 34.912 11.4754 31.3511 14.101 28.7256C15.615 27.2116 17.4403 26.0812 19.4261 25.3945C16.7057 23.815 14.8754 20.8723 14.8754 17.5C14.8754 12.4604 18.9608 8.375 24.0004 8.375ZM24.0004 10.375C20.0653 10.375 16.8754 13.565 16.8754 17.5C16.8754 21.435 20.0653 24.625 24.0004 24.625C27.9352 24.6248 31.1254 21.4349 31.1254 17.5C31.1254 13.5651 27.9352 10.3752 24.0004 10.375Z" fill="white"/>
</g>
<defs>
<clipPath id="clip0_1674_7295">
<rect width="48" height="48" fill="white"/>
</clipPath>
</defs>
</svg>
