<svg viewBox="0 0 1024 1024" version="1.1" xmlns="http://www.w3.org/2000/svg" style="fill: #63656E;"><path fill="#63656E" d="M690.08 464.96a28.8 28.8 0 0 0 57.6 0 177.92 177.92 0 0 0-176-176 26.88 26.88 0 0 0-28.96 28.8 26.88 26.88 0 0 0 28.96 28.96 118.4 118.4 0 0 1 118.56 118.72Zm118.56 0a26.88 26.88 0 0 0 28.8 28.8 28.64 28.64 0 0 0 28.8-28.8A296.16 296.16 0 0 0 571.52 169.76a26.88 26.88 0 0 0-28.96 28.8 28.8 28.8 0 0 0 28.96 28.96C699.68 230.72 808.64 336 808.64 464.96ZM411.2 362.24a84.64 84.64 0 0 0 6.4-115.52L327.84 128a90.56 90.56 0 0 0-124.96-12.8c0 3.2-6.4 3.2-6.4 6.4L119.52 198.56C45.76 272 151.68 480.96 347.04 676.64S744.48 978.24 821.44 904.48l80-80a83.52 83.52 0 0 0 0-121.92l-6.4-6.4-115.36-89.76a84.16 84.16 0 0 0-115.52 6.4l-48 48a684.96 684.96 0 0 1-140.96-109.12 776.8 776.8 0 0 1-105.76-137.92l41.6-51.36Z"></path></svg>