<svg width="16" height="16" viewBox="0 0 16 16" fill="none" xmlns="http://www.w3.org/2000/svg">
<path d="M15 9.73006C15 7.66876 13.0401 5.97552 10.8002 5.97552C8.49026 5.97552 6.60034 7.66876 6.60034 9.73006C6.60034 11.7913 8.4202 13.4846 10.8002 13.4846C11.2903 13.4846 11.7803 13.3372 12.2701 13.1902L13.6002 14L13.2502 12.6748C14.2304 11.865 15 10.8342 15 9.73006ZM9.4704 9.0673C9.1905 9.0673 8.98033 8.84626 8.98033 8.55189C8.98033 8.33119 9.26023 8.03648 9.4704 8.03648C9.82036 8.03648 10.1006 8.25751 10.1006 8.55189C10.1003 8.77292 9.82036 9.0673 9.4704 9.0673ZM12.1303 9.0673C11.9204 9.0673 11.6402 8.84626 11.6402 8.55189C11.6402 8.33119 11.9201 8.03648 12.1303 8.03648C12.4803 8.03648 12.7605 8.25751 12.7605 8.55189C12.7605 8.77292 12.5503 9.0673 12.1303 9.0673Z" fill="#04AE0F"/>
<path d="M5.90009 2C3.17014 2 1 3.91427 1 6.41729C1 7.81616 1.76998 8.99399 2.95997 9.87745L2.47022 11.4233L4.22034 10.5399C4.8502 10.6872 5.34028 10.8343 5.97046 10.8343H6.46053C6.39048 10.4662 6.32074 10.0981 6.32074 9.73009C6.32074 7.44811 8.1406 5.60718 10.5206 5.60718H11.0107C10.4502 3.54589 8.35013 2 5.90009 2ZM4.36013 5.46016C4.01017 5.46016 3.59015 5.23912 3.59015 4.7974C3.59015 4.42901 3.94043 4.13463 4.36013 4.13463C4.71009 4.13463 4.99032 4.35567 4.99032 4.7974C4.92026 5.23912 4.71041 5.46016 4.36013 5.46016ZM7.79032 5.46016C7.44036 5.46016 7.02034 5.23912 7.02034 4.7974C7.02034 4.42901 7.3703 4.13463 7.79032 4.13463C8.14028 4.13463 8.4205 4.35567 8.4205 4.7974C8.42019 5.23912 8.14028 5.46016 7.79032 5.46016Z" fill="#04AE0F"/>
</svg>
