<svg viewBox="0 0 1024 1024" version="1.1" xmlns="http://www.w3.org/2000/svg" style="fill: #63656E;"><path d="M780.8 584c-19.2 0-33.6-14.4-33.6-33.6 0-19.2 14.4-33.6 33.6-33.6 19.2 0 33.6 14.4 33.6 33.6 0 19.2-16 33.6-33.6 33.6m-180.8 0c-19.2 0-33.6-14.4-33.6-33.6 0-19.2 14.4-33.6 33.6-33.6 19.2 0 33.6 14.4 33.6 33.6 0 19.2-14.4 33.6-33.6 33.6m267.2 208c56-38.4 91.2-100.8 92.8-169.6 0-124.8-120-224-270.4-224s-270.4 99.2-270.4 224S540.8 848 689.6 848c30.4 0 59.2-4.8 88-12.8 3.2 0 4.8-1.6 8-1.6 4.8 0 9.6 1.6 14.4 3.2l59.2 33.6c1.6 1.6 3.2 1.6 4.8 1.6 4.8 0 9.6-4.8 9.6-9.6 0-1.6 0-4.8-1.6-6.4 0-1.6-8-28.8-12.8-44.8 0-1.6-1.6-3.2-1.6-6.4 1.6-3.2 4.8-8 9.6-12.8"></path><path d="M496 371.2c-20.8 0-38.4-17.6-38.4-38.4s17.6-38.4 38.4-38.4 38.4 17.6 38.4 38.4c0 20.8-17.6 38.4-38.4 38.4m-216 0c-20.8 0-38.4-17.6-38.4-38.4 0-20.8 17.6-38.4 38.4-38.4 20.8 0 38.4 17.6 38.4 38.4 0 20.8-17.6 38.4-38.4 38.4m107.2-220.8C209.6 150.4 64 270.4 64 419.2c0 81.6 43.2 155.2 112 204.8 6.4 3.2 9.6 11.2 9.6 17.6 0 1.6 0 4.8-1.6 6.4-4.8 20.8-14.4 52.8-14.4 54.4-1.6 3.2-1.6 4.8-1.6 8 0 6.4 4.8 11.2 11.2 11.2 1.6 0 4.8-1.6 6.4-1.6l72-41.6c4.8-3.2 9.6-4.8 16-4.8 3.2 0 6.4 0 9.6 1.6 35.2 9.6 70.4 14.4 105.6 14.4h17.6c-6.4-20.8-11.2-43.2-11.2-65.6 0-136 132.8-246.4 296-246.4h17.6c-25.6-129.6-160-228.8-321.6-227.2"></path></svg>