<svg width="63" height="57" viewBox="0 0 63 57" fill="none" xmlns="http://www.w3.org/2000/svg">
<path fill-rule="evenodd" clip-rule="evenodd" d="M31.5 11.302C36.907 11.302 41.9906 13.4283 45.8156 17.2639C49.6274 21.0685 51.7645 26.2478 51.75 31.6458V56.5104H58.5V61.0312H4.5V56.5104H11.25V31.6458C11.25 26.2138 13.3664 21.1066 17.1844 17.2639C20.9715 13.4346 26.1268 11.2876 31.5 11.302ZM33.075 23.7768L25.2141 31.6741L31.5352 38.0244L26.6625 43.4706L30.0094 46.4939L37.7367 37.862L31.5773 31.6741L36.2531 26.9696L33.075 23.7768ZM63 29.3854V33.9062H54V29.3854H63ZM9 29.3854V33.9062H0V29.3854H9ZM10.8967 7.70213L17.2607 14.0956L14.0787 17.2923L7.71473 10.8988L10.8967 7.70213ZM52.0912 7.68865L55.2732 10.8854L48.9092 17.2788L45.7272 14.0821L52.0912 7.68865ZM33.75 0V9.04167H29.25V0H33.75Z" fill="#F0F1F5"/>
</svg>
