<svg width="57" height="58" viewBox="0 0 57 58" fill="none" xmlns="http://www.w3.org/2000/svg">
<path d="M44.0197 22.5447C43.9343 23.4215 43.6888 24.1208 43.2833 24.6426C42.8777 25.1645 42.4615 25.5716 42.0346 25.8638C41.5224 26.1978 40.9674 26.4274 40.3698 26.5527C40.0283 27.2624 39.6654 27.9304 39.2812 28.5567C38.9397 29.0994 38.5875 29.6317 38.2247 30.1536C37.8618 30.6754 37.5096 31.0825 37.1681 31.3748C36.7839 31.7087 36.4211 31.9906 36.0796 32.2202C35.7381 32.4498 35.4392 32.6899 35.1831 32.9404C34.927 33.1909 34.7135 33.4935 34.5428 33.8484C34.372 34.2033 34.244 34.6312 34.1586 35.1322C34.0732 35.7167 33.9771 36.3012 33.8704 36.8857C33.7637 37.4702 33.7424 38.0547 33.8064 38.6392C33.8704 39.2237 34.0732 39.7977 34.4147 40.3613C34.7562 40.9249 35.3539 41.4364 36.2076 41.8956V60.3072C36.2076 60.6412 36.2717 60.9647 36.3997 61.2778C36.5278 61.591 36.6986 61.8519 36.912 62.0606C34.8629 62.2694 32.8779 62.4364 30.9569 62.5616C29.0359 62.6869 27.3497 62.7495 25.8983 62.7495C24.6603 62.7495 23.2196 62.6973 21.5761 62.5929C19.9325 62.4886 18.2357 62.3633 16.4854 62.2172C14.7352 62.0711 13.0063 61.9041 11.2987 61.7162C9.5912 61.5283 8.03306 61.33 6.62433 61.1213C5.2156 60.9125 4.02032 60.7038 3.03847 60.495C2.05663 60.2863 1.43765 60.0775 1.18151 59.8688C0.711938 59.5348 0.359756 58.5119 0.124968 56.8002C-0.10982 55.0885 -0.0137706 52.8757 0.413117 50.162C0.583872 49.1183 0.936054 48.2624 1.46966 47.5944C2.00327 46.9264 2.65428 46.3524 3.42267 45.8723C4.19107 45.3922 5.04485 45.006 5.984 44.7137C6.92315 44.4215 7.88365 44.1397 8.86549 43.8683C9.84733 43.5969 10.7972 43.3047 11.715 42.9916C12.6328 42.6784 13.4759 42.2922 14.2443 41.833C15.1407 41.2903 15.8344 40.758 16.3253 40.2361C16.8163 39.7142 17.1578 39.2028 17.3499 38.7018C17.542 38.2008 17.638 37.6789 17.638 37.1362C17.638 36.5934 17.6167 36.0089 17.574 35.3827C17.4886 34.3807 17.1471 33.6083 16.5495 33.0656C15.9518 32.5229 15.3115 31.9592 14.6285 31.3748C14.287 31.0825 13.9455 30.6754 13.6039 30.1536C13.2624 29.6317 12.9636 29.0994 12.7075 28.5567C12.4087 27.9304 12.1098 27.2624 11.811 26.5527C11.3414 26.4692 10.8932 26.3231 10.4663 26.1143C10.0821 25.9056 9.69792 25.6133 9.31372 25.2376C8.92952 24.8618 8.6307 24.3191 8.41726 23.6093C8.16112 22.8996 8.10776 22.2525 8.25717 21.668C8.40658 21.0835 8.6307 20.5825 8.92952 20.165C9.27103 19.7058 9.69792 19.2674 10.2102 18.8499C10.2529 17.2634 10.4236 15.6769 10.7224 14.0905C10.9786 12.7545 11.3521 11.3141 11.843 9.76938C12.3339 8.22465 13.0276 6.84692 13.9241 5.63618C14.7352 4.4672 15.6423 3.5174 16.6455 2.78678C17.6487 2.05616 18.6732 1.48211 19.7191 1.06461C20.765 0.647117 21.8109 0.365308 22.8567 0.219185C23.9026 0.0730616 24.9165 -4.10564e-08 25.8983 0C27.1363 0 28.3316 0.135686 29.4842 0.407058C30.6368 0.678429 31.704 1.04374 32.6858 1.50298C33.6677 1.96223 34.5428 2.4841 35.3112 3.06859C36.0796 3.65308 36.6986 4.23757 37.1681 4.82207C38.278 6.15805 39.1425 7.64016 39.7615 9.26839C40.3805 10.8966 40.8607 12.4205 41.2022 13.84C41.5864 15.5099 41.8425 17.1799 41.9706 18.8499C42.3975 19.0586 42.7817 19.33 43.1232 19.664C43.422 19.9563 43.6675 20.332 43.8596 20.7913C44.0517 21.2505 44.1051 21.835 44.0197 22.5447ZM53.8808 43.2734C54.5638 43.2734 55.1294 43.503 55.5777 43.9622C56.0259 44.4215 56.25 44.9642 56.25 45.5905V56.2366C56.25 56.5706 56.0259 57.1029 55.5777 57.8335C55.1294 58.5641 54.6065 59.3156 54.0088 60.088C53.4112 60.8603 52.8136 61.5388 52.2159 62.1233C51.6183 62.7078 51.1487 63 50.8072 63H42.5469C41.8639 63 41.2983 62.7808 40.85 62.3424C40.4018 61.9041 40.1777 61.3509 40.1777 60.6829V45.5905C40.1777 44.9642 40.4018 44.4215 40.85 43.9622C41.2983 43.503 41.8639 43.2734 42.5469 43.2734H53.8808ZM45.1082 47.1561C44.7667 47.1561 44.4892 47.2918 44.2758 47.5631C44.0624 47.8345 43.9556 48.325 43.9556 49.0348C43.9556 49.5358 44.0624 49.9846 44.2758 50.3812C44.4892 50.7778 44.7667 50.9761 45.1082 50.9761H51.5115C51.8531 50.9761 52.0452 50.7361 52.0878 50.256C52.1305 49.7758 52.1519 49.3688 52.1519 49.0348C52.1519 48.7008 52.1305 48.3042 52.0878 47.8449C52.0452 47.3857 51.8531 47.1561 51.5115 47.1561H45.1082ZM51.1274 58.4284C51.4689 58.4284 51.7357 58.1779 51.9278 57.6769C52.1199 57.1759 52.2159 56.7584 52.2159 56.4245C52.2159 56.0905 52.1199 55.7356 51.9278 55.3598C51.7357 54.9841 51.4689 54.7962 51.1274 54.7962H44.9802C44.6387 54.7962 44.3719 55.005 44.1798 55.4225C43.9877 55.84 43.8916 56.2157 43.8916 56.5497C43.8916 56.8837 43.9877 57.2803 44.1798 57.7396C44.3719 58.1988 44.6387 58.4284 44.9802 58.4284H51.1274Z" fill="#E8F1FC"/>
</svg>
