<?xml version="1.0" encoding="UTF-8"?>
<svg width="46px" height="18px" viewBox="0 0 46 18" version="1.1" xmlns="http://www.w3.org/2000/svg" xmlns:xlink="http://www.w3.org/1999/xlink">
    <title>Ts</title>
    <g id="ðŸŒ›-Tag" stroke="none" stroke-width="1" fill="none" fill-rule="evenodd">
        <g id="ç”»æ¿" transform="translate(-164.000000, -35.000000)">
            <g id="Ts" transform="translate(164.000000, 35.000000)">
                <rect id="çŸ©å½¢å¤‡ä»½-5" fill="#E1ECFF" x="0" y="0" width="46" height="18" rx="9"></rect>
                <g id="æ–‡å­—å¤‡ä»½" transform="translate(17.208984, 4.709961)" fill="#3A84FF" fill-rule="nonzero">
                    <polygon id="è·¯å¾„" points="0 0 5.56152344 0 5.56152344 0.830078125 3.28125 0.830078125 3.28125 7.29003906 2.29003906 7.29003906 2.29003906 0.830078125 0 0.830078125"></polygon>
                    <path d="M10.5419922,2.01171875 L10.5419922,2.890625 C10.2848307,2.74088542 10.0260417,2.62858073 9.765625,2.55371094 C9.50520833,2.47884115 9.23990885,2.44140625 8.96972656,2.44140625 C8.56282552,2.44140625 8.25927734,2.50732422 8.05908203,2.63916016 C7.85888672,2.77099609 7.75878906,2.97200521 7.75878906,3.2421875 C7.75878906,3.48632812 7.83365885,3.66861979 7.98339844,3.7890625 C8.13313802,3.90950521 8.50585938,4.02669271 9.1015625,4.140625 L9.46289062,4.20898438 C9.90885417,4.29361979 10.246582,4.46289062 10.4760742,4.71679688 C10.7055664,4.97070312 10.8203125,5.30110677 10.8203125,5.70800781 C10.8203125,6.2483724 10.6282552,6.67073568 10.2441406,6.97509766 C9.86002604,7.27945964 9.32617188,7.43164062 8.64257812,7.43164062 C8.37239583,7.43164062 8.08919271,7.40315755 7.79296875,7.34619141 C7.49674479,7.28922526 7.17610677,7.20377604 6.83105469,7.08984375 L6.83105469,6.16210938 C7.16634115,6.33463542 7.48697917,6.46402995 7.79296875,6.55029297 C8.09895833,6.63655599 8.38867188,6.6796875 8.66210938,6.6796875 C9.05924479,6.6796875 9.36686198,6.59912109 9.58496094,6.43798828 C9.8030599,6.27685547 9.91210938,6.05143229 9.91210938,5.76171875 C9.91210938,5.34505208 9.51334635,5.05696615 8.71582031,4.89746094 L8.67675781,4.88769531 L8.33984375,4.81933594 C7.82226562,4.71842448 7.44466146,4.54833984 7.20703125,4.30908203 C6.96940104,4.06982422 6.85058594,3.74348958 6.85058594,3.33007812 C6.85058594,2.80598958 7.02799479,2.40152995 7.3828125,2.11669922 C7.73763021,1.83186849 8.2438151,1.68945312 8.90136719,1.68945312 C9.19433594,1.68945312 9.47591146,1.71630859 9.74609375,1.77001953 C10.016276,1.82373047 10.2815755,1.90429688 10.5419922,2.01171875 Z" id="è·¯å¾„"></path>
                </g>
            </g>
        </g>
    </g>
</svg>