

<svg class="bk-icon" style="width: 1em; height: 1em;vertical-align: middle;fill: currentColor;overflow: hidden;" viewBox="0 0 64 64" version="1.1" xmlns="http://www.w3.org/2000/svg">

<path  fill="#737987" d="M56,6H8C6.9,6,6,6.9,6,8v48c0,1.1,0.9,2,2,2h48c1.1,0,2-0.9,2-2V8C58,6.9,57.1,6,56,6z M54,54H10V10
	h44V54z"/>
<path  fill="#737987" d="M49.6,17.2l-2.8-2.8L38,23.2l0-5.2h-4v12h12v-4h-5.2L49.6,17.2z M38,26L38,26L38,26L38,26z"/>
<path  fill="#737987" d="M14.4,46.8l2.8,2.8l8.8-8.8l0,5.2h4V34H18v4h5.2L14.4,46.8z M26,38L26,38L26,38L26,38z"/>
</svg>
